<svg width="252" height="84" viewBox="0 0 252 84" fill="none" xmlns="http://www.w3.org/2000/svg">
<g clip-path="url(#clip0_1585_9568)">
<path d="M231.283 0.00015093H20.0228C19.2528 0.00015093 18.4919 0.00015093 17.7239 0.00435093C17.081 0.00855093 16.4432 0.0207519 15.7941 0.0310209C14.384 0.0476147 12.9772 0.171671 11.5859 0.402112C10.1966 0.637569 8.85081 1.08147 7.59406 1.71881C6.33885 2.36154 5.19192 3.1967 4.1949 4.194C3.19264 5.18849 2.35717 6.33799 1.72063 7.59829C1.08234 8.85608 0.639745 10.2039 0.408135 11.5953C0.174323 12.9848 0.0485066 14.3904 0.031815 15.7995C0.012327 16.4433 0.010269 17.0893 0 17.7333V66.2732C0.010269 66.9253 0.012327 67.5569 0.031815 68.2092C0.0485117 69.6181 0.174328 71.0237 0.408135 72.4132C0.639105 73.8053 1.08173 75.154 1.72063 76.4122C2.35688 77.6685 3.19246 78.8133 4.1949 79.8023C5.18814 80.804 6.33581 81.6397 7.59406 82.2775C8.8508 82.9166 10.1964 83.3631 11.5859 83.6022C12.9774 83.8308 14.3841 83.9549 15.7941 83.9735C16.4432 83.9878 17.081 83.996 17.7239 83.996C18.4919 84.0002 19.2528 84.0002 20.0228 84.0002H231.283C232.038 84.0002 232.805 84.0002 233.559 83.996C234.199 83.996 234.856 83.9878 235.495 83.9735C236.903 83.9559 238.307 83.8318 239.695 83.6022C241.089 83.3614 242.44 82.915 243.703 82.2775C244.96 81.6393 246.106 80.8036 247.099 79.8023C248.099 78.8094 248.936 77.6654 249.58 76.4122C250.214 75.153 250.653 73.8045 250.88 72.4132C251.114 71.0235 251.245 69.6183 251.27 68.2092C251.278 67.5569 251.278 66.9253 251.278 66.2732C251.295 65.5103 251.295 64.7516 251.295 63.9762V20.026C251.295 19.257 251.295 18.4941 251.278 17.7333C251.278 17.0893 251.278 16.4433 251.27 15.7994C251.245 14.3902 251.114 12.9849 250.88 11.5952C250.652 10.2046 250.214 8.85691 249.58 7.5982C248.284 5.07206 246.228 3.0158 243.703 1.71862C242.44 1.08284 241.089 0.639056 239.695 0.401923C238.307 0.170467 236.903 0.0463672 235.495 0.0307269C234.856 0.0204789 234.199 0.00817293 233.559 0.00407793C232.805 -0.00012207 232.038 -0.00012207 231.283 -0.00012207V0.00015093Z" fill="#A6A6A6"/>
<path d="M17.7341 82.1625C17.0943 82.1625 16.4699 82.1543 15.8351 82.1401C14.5201 82.1229 13.2081 82.0084 11.9099 81.7975C10.6995 81.5891 9.52686 81.2013 8.43078 80.647C7.34475 80.0972 6.3542 79.3764 5.49708 78.5121C4.62755 77.658 3.90363 76.6673 3.35401 75.5794C2.79832 74.4845 2.41376 73.3108 2.21371 72.0993C1.99767 70.7976 1.88078 69.4813 1.86406 68.1618C1.85074 67.7189 1.83331 66.2443 1.83331 66.2443V17.7331C1.83331 17.7331 1.85188 16.2812 1.86416 15.8546C1.88018 14.5372 1.99638 13.223 2.21178 11.9233C2.4122 10.7085 2.79706 9.5314 3.35304 8.43285C3.90065 7.34571 4.62055 6.35433 5.48483 5.49715C6.34815 4.63183 7.34187 3.90729 8.42975 3.34997C9.52331 2.79742 10.6937 2.41236 11.9017 2.20769C13.2041 1.99468 14.5207 1.87952 15.8403 1.86317L17.7352 1.83752H233.549L235.467 1.86419C236.774 1.87973 238.079 1.99387 239.369 2.20563C240.589 2.41287 241.772 2.80062 242.878 3.35612C245.058 4.4793 246.831 6.25627 247.95 8.43797C248.497 9.52894 248.876 10.6964 249.074 11.9007C249.292 13.2111 249.414 14.5357 249.439 15.8638C249.445 16.4586 249.445 17.0974 249.445 17.7331C249.461 18.5206 249.461 19.2702 249.461 20.0259V63.9761C249.461 64.739 249.461 65.4835 249.445 66.234C249.445 66.917 249.445 67.5425 249.436 68.1864C249.412 69.4909 249.292 70.7918 249.078 72.0787C248.882 73.299 248.499 74.4818 247.944 75.5857C247.39 76.6618 246.67 77.6439 245.811 78.4957C244.953 79.3647 243.961 80.0897 242.872 80.643C241.769 81.2016 240.588 81.5908 239.369 81.7975C238.071 82.0096 236.759 82.1241 235.444 82.1401C234.829 82.1543 234.185 82.1625 233.559 82.1625L231.283 82.1667L17.7341 82.1625Z" fill="black"/>
<path d="M52.0147 42.6314C52.0373 40.8787 52.5028 39.1601 53.3681 37.6356C54.2333 36.111 55.4701 34.8302 56.9634 33.9121C56.0148 32.5573 54.7633 31.4423 53.3084 30.6557C51.8534 29.8692 50.2351 29.4327 48.582 29.381C45.0556 29.0108 41.6369 31.4911 39.8399 31.4911C38.0081 31.4911 35.2414 29.4177 32.2621 29.479C30.3349 29.5413 28.4568 30.1017 26.8107 31.1056C25.1645 32.1095 23.8065 33.5227 22.8689 35.2076C18.8075 42.2392 21.837 52.5734 25.7275 58.2573C27.6739 61.0406 29.9488 64.1495 32.9255 64.0393C35.8383 63.9184 36.9262 62.1818 40.4422 62.1818C43.9256 62.1818 44.9463 64.0393 47.9833 63.9692C51.1089 63.9184 53.0782 61.1736 54.9564 58.364C56.3549 56.3808 57.4311 54.189 58.1451 51.8697C56.3292 51.1017 54.7796 49.8161 53.6894 48.1733C52.5992 46.5304 52.0168 44.6031 52.0147 42.6314V42.6314Z" fill="white"/>
<path d="M46.2782 25.6429C47.9824 23.597 48.822 20.9674 48.6187 18.3126C46.0151 18.586 43.61 19.8304 41.8828 21.7977C41.0383 22.7588 40.3915 23.877 39.9794 25.0882C39.5673 26.2994 39.3979 27.58 39.481 28.8567C40.7833 28.8701 42.0717 28.5878 43.249 28.0311C44.4264 27.4744 45.4622 26.6578 46.2782 25.6429Z" fill="white"/>
<path d="M88.8348 56.9932H78.8947L76.5076 64.0418H72.2973L81.7124 37.964H86.0867L95.5019 64.0418H91.2198L88.8348 56.9932ZM79.9241 53.7407H87.8033L83.9192 42.3014H83.8105L79.9241 53.7407Z" fill="white"/>
<path d="M115.835 54.5364C115.835 60.4447 112.673 64.2407 107.901 64.2407C106.692 64.3039 105.49 64.0255 104.432 63.4372C103.374 62.8489 102.503 61.9746 101.919 60.9143H101.828V70.3315H97.9258V45.029H101.703V48.1913H101.775C102.386 47.1361 103.272 46.2663 104.338 45.6744C105.404 45.0826 106.61 44.7907 107.829 44.83C112.655 44.8301 115.835 48.6445 115.835 54.5364ZM111.824 54.5364C111.824 50.6871 109.835 48.1564 106.8 48.1564C103.818 48.1564 101.812 50.7404 101.812 54.5364C101.812 58.3673 103.818 60.9328 106.8 60.9328C109.835 60.9328 111.824 58.4206 111.824 54.5364Z" fill="white"/>
<path d="M136.762 54.5365C136.762 60.4448 133.599 64.2407 128.827 64.2407C127.618 64.304 126.416 64.0255 125.358 63.4372C124.3 62.8489 123.429 61.9746 122.845 60.9143H122.755V70.3315H118.852V45.029H122.63V48.1913H122.701C123.312 47.1361 124.198 46.2664 125.264 45.6745C126.33 45.0826 127.537 44.7908 128.755 44.8301C133.581 44.8301 136.762 48.6445 136.762 54.5365ZM132.75 54.5365C132.75 50.6872 130.761 48.1565 127.726 48.1565C124.744 48.1565 122.738 50.7405 122.738 54.5365C122.738 58.3673 124.744 60.9328 127.726 60.9328C130.761 60.9328 132.75 58.4206 132.75 54.5365H132.75Z" fill="white"/>
<path d="M150.592 56.7759C150.881 59.3619 153.393 61.0599 156.826 61.0599C160.116 61.0599 162.482 59.3618 162.482 57.0301C162.482 55.0059 161.055 53.794 157.675 52.9634L154.296 52.1492C149.507 50.9926 147.284 48.7531 147.284 45.1191C147.284 40.6197 151.205 37.5292 156.773 37.5292C162.283 37.5292 166.061 40.6197 166.188 45.1191H162.249C162.013 42.5167 159.862 40.9458 156.718 40.9458C153.574 40.9458 151.423 42.5352 151.423 44.8484C151.423 46.6921 152.797 47.7769 156.158 48.6074L159.031 49.3129C164.381 50.5782 166.604 52.7275 166.604 56.5419C166.604 61.4207 162.718 64.4764 156.537 64.4764C150.754 64.4764 146.849 61.4925 146.597 56.7757L150.592 56.7759Z" fill="white"/>
<path d="M175.027 40.5296V45.029H178.643V48.1195H175.027V58.6011C175.027 60.2294 175.751 60.9882 177.34 60.9882C177.77 60.9807 178.198 60.9506 178.624 60.8979V63.97C177.91 64.1035 177.183 64.164 176.456 64.1504C172.607 64.1504 171.106 62.7046 171.106 59.0173V48.1195H168.342V45.029H171.106V40.5296H175.027Z" fill="white"/>
<path d="M180.737 54.5364C180.737 48.5543 184.26 44.7952 189.754 44.7952C195.266 44.7952 198.773 48.5542 198.773 54.5364C198.773 60.535 195.285 64.2776 189.754 64.2776C184.225 64.2776 180.737 60.535 180.737 54.5364ZM194.797 54.5364C194.797 50.4328 192.916 48.0109 189.754 48.0109C186.592 48.0109 184.713 50.4513 184.713 54.5364C184.713 58.6564 186.592 61.06 189.754 61.06C192.916 61.06 194.797 58.6564 194.797 54.5364H194.797Z" fill="white"/>
<path d="M201.991 45.029H205.713V48.2651H205.803C206.055 47.2544 206.647 46.3612 207.48 45.7356C208.313 45.1101 209.336 44.7903 210.376 44.83C210.826 44.8285 211.275 44.8773 211.714 44.9756V48.626C211.146 48.4525 210.553 48.3729 209.96 48.3902C209.393 48.3672 208.828 48.4672 208.303 48.6832C207.779 48.8993 207.307 49.2263 206.92 49.6419C206.534 50.0575 206.242 50.5517 206.065 51.0907C205.888 51.6297 205.829 52.2007 205.893 52.7645V64.0418H201.991L201.991 45.029Z" fill="white"/>
<path d="M229.707 58.4575C229.182 61.909 225.821 64.2776 221.52 64.2776C215.989 64.2776 212.556 60.5719 212.556 54.6267C212.556 48.663 216.008 44.7952 221.356 44.7952C226.617 44.7952 229.924 48.4087 229.924 54.1734V55.5106H216.496V55.7464C216.434 56.4461 216.522 57.151 216.753 57.8143C216.984 58.4775 217.354 59.084 217.838 59.5933C218.322 60.1027 218.908 60.5033 219.559 60.7685C220.209 61.0338 220.909 61.1576 221.611 61.1317C222.533 61.2181 223.458 61.0046 224.249 60.5227C225.041 60.0409 225.655 59.3166 226.001 58.4575L229.707 58.4575ZM216.514 52.783H226.02C226.055 52.1539 225.959 51.5243 225.74 50.9337C225.52 50.3432 225.18 49.8045 224.742 49.3513C224.304 48.8982 223.778 48.5405 223.195 48.3007C222.612 48.0608 221.986 47.944 221.356 47.9575C220.721 47.9537 220.091 48.0758 219.503 48.3168C218.915 48.5578 218.38 48.9128 217.93 49.3614C217.48 49.8101 217.123 50.3434 216.88 50.9307C216.637 51.5179 216.513 52.1475 216.514 52.783V52.783Z" fill="white"/>
<path d="M79.435 18.3351C80.2532 18.2764 81.0742 18.4 81.8388 18.697C82.6035 18.994 83.2927 19.457 83.8567 20.0526C84.4207 20.6482 84.8455 21.3616 85.1005 22.1413C85.3554 22.9209 85.4342 23.7475 85.331 24.5612C85.331 28.5644 83.1674 30.8654 79.435 30.8654H74.9089V18.3351H79.435ZM76.8551 29.0934H79.2176C79.8023 29.1283 80.3873 29.0325 80.9303 28.8128C81.4732 28.5931 81.9603 28.2551 82.3562 27.8234C82.752 27.3917 83.0466 26.8772 83.2185 26.3173C83.3904 25.7574 83.4353 25.1662 83.3499 24.5868C83.4291 24.0096 83.3797 23.4221 83.2051 22.8663C83.0306 22.3105 82.7352 21.8002 82.3403 21.372C81.9454 20.9437 81.4606 20.6081 80.9207 20.3892C80.3809 20.1703 79.7993 20.0735 79.2176 20.1058H76.8551V29.0934Z" fill="white"/>
<path d="M87.5294 26.1331C87.4699 25.5117 87.541 24.8847 87.7381 24.2924C87.9352 23.7 88.2539 23.1554 88.6737 22.6934C89.0936 22.2315 89.6054 21.8624 90.1763 21.6098C90.7472 21.3572 91.3646 21.2267 91.9888 21.2267C92.6131 21.2267 93.2305 21.3572 93.8013 21.6098C94.3722 21.8624 94.884 22.2315 95.3039 22.6934C95.7238 23.1554 96.0425 23.7 96.2395 24.2924C96.4366 24.8847 96.5077 25.5117 96.4482 26.1331C96.5088 26.7552 96.4386 27.3831 96.242 27.9764C96.0455 28.5697 95.727 29.1153 95.307 29.5782C94.887 30.041 94.3748 30.4109 93.8034 30.664C93.2319 30.9172 92.6138 31.0479 91.9888 31.0479C91.3638 31.0479 90.7457 30.9172 90.1743 30.664C89.6028 30.4109 89.0906 30.041 88.6706 29.5782C88.2506 29.1153 87.9321 28.5697 87.7356 27.9764C87.5391 27.3831 87.4688 26.7552 87.5294 26.1331V26.1331ZM94.5287 26.1331C94.5287 24.0834 93.6079 22.8847 91.9919 22.8847C90.3697 22.8847 89.4572 24.0834 89.4572 26.1332C89.4572 28.1993 90.3698 29.3888 91.9919 29.3888C93.6079 29.3888 94.5287 28.1911 94.5287 26.1331H94.5287Z" fill="white"/>
<path d="M108.304 30.8653H106.368L104.414 23.9008H104.266L102.32 30.8653H100.402L97.7957 21.4091H99.6885L101.382 28.6247H101.522L103.466 21.4091H105.256L107.201 28.6247H107.348L109.034 21.4091H110.9L108.304 30.8653Z" fill="white"/>
<path d="M113.092 21.4091H114.889V22.9113H115.028C115.265 22.3718 115.664 21.9195 116.17 21.6175C116.676 21.3155 117.263 21.1789 117.85 21.2266C118.31 21.192 118.772 21.2614 119.202 21.4296C119.632 21.5978 120.018 21.8605 120.332 22.1983C120.647 22.536 120.881 22.9402 121.018 23.3808C121.155 23.8215 121.191 24.2872 121.123 24.7437V30.8652H119.257V25.2123C119.257 23.6927 118.597 22.937 117.217 22.937C116.904 22.9224 116.592 22.9756 116.302 23.0928C116.012 23.2101 115.751 23.3886 115.537 23.6162C115.322 23.8438 115.16 24.1151 115.06 24.4115C114.96 24.7079 114.926 25.0223 114.959 25.3333V30.8653H113.092L113.092 21.4091Z" fill="white"/>
<path d="M124.097 17.7177H125.963V30.8653H124.097V17.7177Z" fill="white"/>
<path d="M128.557 26.1331C128.498 25.5117 128.569 24.8846 128.766 24.2923C128.963 23.6999 129.282 23.1553 129.702 22.6933C130.122 22.2313 130.634 21.8622 131.205 21.6096C131.776 21.357 132.393 21.2266 133.017 21.2266C133.642 21.2266 134.259 21.357 134.83 21.6096C135.401 21.8622 135.913 22.2313 136.333 22.6933C136.753 23.1553 137.071 23.6999 137.268 24.2923C137.465 24.8846 137.537 25.5117 137.477 26.1331C137.538 26.7552 137.467 27.3831 137.271 27.9764C137.074 28.5697 136.756 29.1153 136.336 29.5782C135.916 30.041 135.403 30.4109 134.832 30.664C134.26 30.9171 133.642 31.0479 133.017 31.0479C132.392 31.0479 131.774 30.9171 131.203 30.664C130.631 30.4109 130.119 30.041 129.699 29.5782C129.279 29.1153 128.96 28.5697 128.764 27.9764C128.567 27.3831 128.497 26.7552 128.557 26.1331V26.1331ZM135.557 26.1331C135.557 24.0834 134.636 22.8847 133.02 22.8847C131.398 22.8847 130.485 24.0834 130.485 26.1332C130.485 28.1993 131.398 29.3888 133.02 29.3888C134.636 29.3887 135.557 28.1911 135.557 26.1331H135.557Z" fill="white"/>
<path d="M139.442 28.1911C139.442 26.4889 140.709 25.5076 142.959 25.3682L145.52 25.2205V24.4043C145.52 23.4056 144.86 22.8416 143.584 22.8416C142.543 22.8416 141.821 23.2241 141.614 23.8926H139.807C139.998 22.2684 141.525 21.2266 143.671 21.2266C146.041 21.2266 147.378 22.4068 147.378 24.4043V30.8653H145.582V29.5364H145.434C145.135 30.0131 144.714 30.4017 144.215 30.6625C143.716 30.9234 143.156 31.0471 142.594 31.0211C142.197 31.0624 141.796 31.02 141.416 30.8968C141.037 30.7735 140.687 30.572 140.39 30.3054C140.093 30.0388 139.855 29.7129 139.692 29.3487C139.529 28.9845 139.443 28.5902 139.442 28.1911V28.1911ZM145.52 27.383V26.5925L143.211 26.7401C141.909 26.8273 141.318 27.2703 141.318 28.1039C141.318 28.955 142.057 29.4502 143.072 29.4502C143.369 29.4803 143.67 29.4503 143.955 29.3619C144.241 29.2735 144.506 29.1286 144.734 28.9357C144.963 28.7428 145.15 28.506 145.285 28.2393C145.42 27.9725 145.5 27.6813 145.52 27.383V27.383Z" fill="white"/>
<path d="M149.831 26.1331C149.831 23.1451 151.367 21.2523 153.756 21.2523C154.347 21.225 154.934 21.3666 155.447 21.6604C155.961 21.9541 156.38 22.388 156.656 22.9113H156.796V17.7177H158.662V30.8653H156.874V29.3713H156.726C156.428 29.891 155.995 30.3195 155.471 30.6103C154.948 30.9011 154.355 31.0432 153.756 31.0211C151.351 31.0212 149.831 29.1283 149.831 26.1331ZM151.759 26.1331C151.759 28.1388 152.704 29.3457 154.285 29.3457C155.858 29.3457 156.83 28.1214 156.83 26.1413C156.83 24.1705 155.848 22.9288 154.285 22.9288C152.715 22.9288 151.759 24.1439 151.759 26.1331H151.759Z" fill="white"/>
<path d="M166.383 26.1331C166.324 25.5117 166.395 24.8847 166.592 24.2924C166.789 23.7 167.107 23.1554 167.527 22.6934C167.947 22.2315 168.459 21.8624 169.03 21.6098C169.601 21.3572 170.218 21.2267 170.842 21.2267C171.467 21.2267 172.084 21.3572 172.655 21.6098C173.226 21.8624 173.738 22.2315 174.157 22.6934C174.577 23.1554 174.896 23.7 175.093 24.2924C175.29 24.8847 175.361 25.5117 175.302 26.1331C175.362 26.7552 175.292 27.3831 175.096 27.9764C174.899 28.5697 174.581 29.1153 174.161 29.5782C173.741 30.041 173.228 30.4109 172.657 30.664C172.085 30.9172 171.467 31.0479 170.842 31.0479C170.217 31.0479 169.599 30.9172 169.028 30.664C168.456 30.4109 167.944 30.041 167.524 29.5782C167.104 29.1153 166.786 28.5697 166.589 27.9764C166.393 27.3831 166.322 26.7552 166.383 26.1331V26.1331ZM173.382 26.1331C173.382 24.0834 172.461 22.8847 170.845 22.8847C169.223 22.8847 168.311 24.0834 168.311 26.1332C168.311 28.1993 169.223 29.3888 170.845 29.3888C172.461 29.3888 173.382 28.1911 173.382 26.1331Z" fill="white"/>
<path d="M177.806 21.4091H179.602V22.9113H179.742C179.978 22.3718 180.377 21.9195 180.883 21.6175C181.389 21.3155 181.976 21.1789 182.564 21.2266C183.024 21.192 183.486 21.2614 183.915 21.4296C184.345 21.5978 184.731 21.8605 185.046 22.1983C185.36 22.536 185.594 22.9402 185.731 23.3808C185.868 23.8215 185.904 24.2872 185.837 24.7437V30.8652H183.971V25.2123C183.971 23.6927 183.31 22.937 181.93 22.937C181.618 22.9224 181.306 22.9756 181.016 23.0928C180.726 23.2101 180.465 23.3886 180.25 23.6162C180.036 23.8438 179.873 24.1151 179.773 24.4115C179.674 24.7079 179.639 25.0223 179.672 25.3333V30.8653H177.806V21.4091Z" fill="white"/>
<path d="M196.382 19.0549V21.4522H198.431V23.0242H196.382V27.8866C196.382 28.8771 196.79 29.3108 197.719 29.3108C197.957 29.3101 198.194 29.2957 198.431 29.2678V30.8222C198.095 30.8822 197.756 30.9141 197.415 30.9176C195.34 30.9176 194.514 30.1875 194.514 28.3644V23.0241H193.012V21.4521H194.514V19.0549H196.382Z" fill="white"/>
<path d="M200.98 17.7177H202.829V22.9288H202.977C203.225 22.3842 203.635 21.9293 204.151 21.6262C204.667 21.3231 205.264 21.1864 205.86 21.2348C206.318 21.2099 206.776 21.2863 207.2 21.4586C207.625 21.6309 208.007 21.8948 208.318 22.2315C208.629 22.5682 208.862 22.9694 209 23.4065C209.138 23.8436 209.178 24.3058 209.117 24.7601V30.8653H207.249V25.2205C207.249 23.7101 206.545 22.9451 205.227 22.9451C204.906 22.9188 204.584 22.9629 204.282 23.0743C203.98 23.1858 203.706 23.3618 203.479 23.5901C203.252 23.8185 203.078 24.0936 202.969 24.3963C202.859 24.699 202.817 25.0219 202.846 25.3425V30.8652H200.98L200.98 17.7177Z" fill="white"/>
<path d="M219.999 28.312C219.745 29.1763 219.196 29.9238 218.447 30.424C217.698 30.9241 216.797 31.1449 215.901 31.0478C215.278 31.0642 214.659 30.9449 214.087 30.6981C213.515 30.4513 213.003 30.0829 212.587 29.6185C212.172 29.1541 211.862 28.6048 211.68 28.0088C211.498 27.4128 211.448 26.7843 211.533 26.1669C211.45 25.5477 211.501 24.9178 211.683 24.32C211.864 23.7222 212.172 23.1704 212.586 22.7019C212.999 22.2335 213.508 21.8593 214.079 21.6048C214.65 21.3502 215.268 21.2213 215.893 21.2266C218.524 21.2266 220.111 23.0242 220.111 25.9936V26.6448H213.434V26.7494C213.405 27.0964 213.448 27.4457 213.562 27.7749C213.676 28.104 213.857 28.4058 214.094 28.6609C214.331 28.9159 214.619 29.1186 214.939 29.256C215.259 29.3933 215.604 29.4622 215.952 29.4584C216.399 29.512 216.851 29.4316 217.252 29.2274C217.652 29.0233 217.983 28.7046 218.202 28.312L219.999 28.312ZM213.434 25.2646H218.21C218.234 24.9472 218.191 24.6284 218.084 24.3287C217.977 24.029 217.808 23.755 217.589 23.5243C217.37 23.2936 217.105 23.1113 216.811 22.9892C216.517 22.867 216.201 22.8076 215.883 22.8149C215.56 22.8109 215.24 22.8715 214.941 22.9932C214.642 23.1148 214.37 23.2952 214.142 23.5235C213.914 23.7517 213.733 24.0234 213.612 24.3224C213.49 24.6215 213.43 24.9418 213.434 25.2646H213.434Z" fill="white"/>
</g>
<defs>
<clipPath id="clip0_1585_9568">
<rect width="251.295" height="84" fill="white"/>
</clipPath>
</defs>
</svg>
