<svg xmlns="http://www.w3.org/2000/svg" version="1.1" xmlns:xlink="http://www.w3.org/1999/xlink" xmlns:svgjs="http://svgjs.dev/svgjs" width="2000" height="1252" viewBox="0 0 2000 1252"><g transform="matrix(1,0,0,1,-1.2121212121212466,-2.01935483870966)"><svg viewBox="0 0 396 248" data-background-color="#010536" preserveAspectRatio="xMidYMid meet" height="1252" width="2000" xmlns="http://www.w3.org/2000/svg" xmlns:xlink="http://www.w3.org/1999/xlink"><g id="tight-bounds" transform="matrix(1,0,0,1,0.2400000000000091,0.4000000000000057)"><svg viewBox="0 0 395.52 247.2" height="247.2" width="395.52"><g><svg></svg></g><g><svg viewBox="0 0 395.52 247.2" height="247.2" width="395.52"><mask id="b7128d24-130a-476d-a304-d90c5fc959ae"><rect width="640" height="400" fill="white"></rect><g transform="matrix(1,0,0,1,39.55199999999999,61.951793559225656)"><svg viewBox="0 0 316.416 123.29641288154868" height="123.29641288154868" width="316.416"><g><svg viewBox="0 0 316.416 123.29641288154868" height="123.29641288154868" width="316.416"><g><svg viewBox="0 0 316.416 123.29641288154868" height="123.29641288154868" width="316.416"><g><svg viewBox="0 0 316.416 123.29641288154868" height="123.29641288154868" width="316.416"><g id="SvgjsG2169"><svg viewBox="0 0 316.416 123.29641288154868" height="123.29641288154868" width="316.416" id="SvgjsSvg2168"><g><svg viewBox="0 0 316.416 72.00191534106229" height="72.00191534106229" width="316.416"><g transform="matrix(1,0,0,1,0,0)"><svg width="316.416" viewBox="-1.75 -39 186.43 43.2" height="72.00191534106229" data-palette-color="#fbfbf8"><path d="M27.4 0L24.1-9.25 8.7-9.25 5.5 0 2.25 0 14.9-35 17.95-35 31.05 0 27.4 0ZM16.25-31.2L9.55-11.75 23.2-11.75 16.25-31.2ZM39.6 0L30.35-25 34-25.25 41.25-3.85 49.1-25 52.7-25.25 42.6 0 39.6 0ZM57.4-12.3L57.4-11.5Q57.4-2.7 65.8-2.7L65.8-2.7Q69.34-2.7 72.3-3.65L72.3-3.65Q73.05-3.9 73.34-4.05L73.34-4.05 74.09-1.4Q72.34-0.35 67.75 0.1L67.75 0.1Q66.45 0.2 65 0.2L65 0.2Q60.8 0.2 58-1.9L58-1.9Q54.15-4.75 54.15-11.4 54.15-18.05 57.62-21.63 61.1-25.2 66.05-25.2 71-25.2 73.5-22L73.5-22Q75.4-19.45 75.4-15.25L75.4-15.25Q75.4-14.25 75.3-13.15L75.3-13.15 57.45-13.15Q57.4-12.75 57.4-12.3L57.4-12.3ZM66.25-22.1L66.25-22.1Q63.15-22.1 60.95-20.23 58.75-18.35 57.9-15.4L57.9-15.4 72.45-15.4Q72.2-20.95 68.15-21.85L68.15-21.85Q67.25-22.1 66.25-22.1ZM82.94-25.25L82.94-22.25Q86.69-25 90.04-25.15L90.04-25.15Q93.09-25.15 94.74-24.4 96.39-23.65 97.47-22.28 98.54-20.9 98.54-18.4L98.54-18.4 98.54 0 95.29 0 95.29-17.55Q95.29-19.4 94.49-20.4L94.49-20.4Q92.89-22.25 89.59-22.25L89.59-22.25Q86.44-22.1 82.94-20.2L82.94-20.2 82.94 0 79.69 0 79.69-25 82.94-25.25ZM115.39-3.6L115.99-0.9Q115.09 0 112.74 0L112.74 0Q109.44 0 108.29-1.7L108.29-1.7Q106.34-3.55 106.34-6.7L106.34-6.7 106.34-22.1 103.54-22.1 103.99-25 106.34-25 106.34-29.95 109.59-30.25 109.59-25 115.39-25 115.39-22.1 109.59-22.1 109.59-5.9Q109.59-3 112.59-3L112.59-3Q113.89-3 115.39-3.6L115.39-3.6ZM126.04-3.2L126.04-3.2Q127.14-2.8 129.54-2.8 131.94-2.8 135.74-4.75L135.74-4.75 135.74-25 138.99-25.25 138.99 0 135.74 0 135.74-2.7Q132.04 0.15 128.19 0.15L128.19 0.15Q123.39 0.15 121.24-2.7L121.24-2.7Q120.14-4.1 120.14-6.6L120.14-6.6 120.14-25 123.39-25.25 123.39-7.45Q123.39-4.35 126.04-3.2ZM159.84-24.5L158.54-21.5Q157.74-21.95 156.84-21.95 155.94-21.95 155.84-21.9L155.84-21.9Q153.94-21.9 152.01-20.53 150.09-19.15 148.74-17.45L148.74-17.45 148.74 0 145.49 0 145.49-25 148.74-25.25 148.74-19.65Q150.59-22 151.89-22.95L151.89-22.95Q154.29-24.75 156.49-24.85L156.49-24.85Q156.79-24.9 157.59-24.9 158.39-24.9 159.84-24.5L159.84-24.5ZM163.03-19.9L162.13-22.3Q167.58-25 171.68-25.15L171.68-25.15Q174.93-25.15 176.71-24.33 178.48-23.5 179.58-22.03 180.68-20.55 180.68-17.9L180.68-17.9 180.68 0 177.43 0 177.43-1.9Q170.58 0.2 168.63 0.2L168.63 0.2Q168.53 0.2 168.48 0.2L168.48 0.2Q163.98 0.2 162.33-2.55L162.33-2.55Q161.73-3.55 161.66-4.5 161.58-5.45 161.58-6.1L161.58-6.1Q161.58-7.9 162.98-9.33 164.38-10.75 166.33-11.25L166.33-11.25Q169.63-12.1 177.43-12.75L177.43-12.75 177.43-16.8Q177.43-22.25 171.73-22.25L171.73-22.25Q167.73-22.25 163.03-19.9L163.03-19.9ZM164.63-5.7L164.63-5.7Q164.63-2.1 169.58-2.1L169.58-2.1Q173.53-2.1 177.43-3.8L177.43-3.8 177.43-10.95Q169.63-9.85 167.78-9.25L167.78-9.25Q164.63-8.25 164.63-5.7Z" opacity="1" transform="matrix(1,0,0,1,0,0)" fill="black" class="wordmark-text-0" id="SvgjsPath2167" stroke-width="7" stroke="black" stroke-linejoin="round"></path></svg></g></svg></g><g transform="matrix(1,0,0,1,3.5,86.1802786264934)"><svg viewBox="0 0 309.416 37.11613425505527" height="37.11613425505527" width="309.416"><g transform="matrix(1,0,0,1,0,0)"><svg width="309.416" viewBox="-2.77 -37.48 416.93 50.86" height="37.11613425505527" data-palette-color="#fbfbf8"><path d="M5.43 0L1.23 0 11.23-31.95 17.78-31.95 27.8 0 23.6 0 14.83-29.15 14.2-29.15 5.43 0ZM21.78-9.43L7.23-9.43 7.23-12.88 21.78-12.88 21.78-9.43ZM42.3 0.53L42.3 0.53Q37.9 0.53 35.6-2.2 33.3-4.93 33.3-10.15L33.3-10.15 33.3-14.18Q33.3-19.43 35.62-22.19 37.95-24.95 42.47-24.95L42.47-24.95Q44.72-24.95 46.37-24.19 48.02-23.43 49.05-22.05 50.07-20.68 50.42-18.8L50.42-18.8 51.75-18.8 50.55-15.08Q50.47-17.23 49.59-18.69 48.7-20.15 47.19-20.9 45.67-21.65 43.72-21.65L43.72-21.65Q40.62-21.65 38.99-19.85 37.35-18.05 37.35-14.55L37.35-14.55 37.35-9.9Q37.35-6.45 38.99-4.65 40.62-2.85 43.72-2.85L43.72-2.85Q45.57-2.85 47-3.56 48.42-4.28 49.36-5.54 50.3-6.8 50.65-8.4L50.65-8.4 51.65-5.5 50.45-5.5Q50.1-3.85 49.11-2.48 48.12-1.1 46.46-0.29 44.8 0.53 42.3 0.53ZM54.5 0L50.45 0 50.62-5.9 50.55-7.2 50.55-17.4 50.57-18.25 50.47-25.18 50.47-33.13 54.5-33.13 54.5 0ZM72.45-2.78L73.05-2.78 79.8-24.4 84-24.4 76.07 0 69.42 0 61.5-24.4 65.7-24.4 72.45-2.78ZM100.42 0.55L100.42 0.55Q94.85 0.55 92.02-2.18 89.2-4.9 89.2-9.98L89.2-9.98 89.2-14.33Q89.2-19.48 91.82-22.26 94.45-25.05 99.5-25.05L99.5-25.05Q102.9-25.05 105.17-23.79 107.45-22.53 108.6-20.2 109.75-17.88 109.75-14.65L109.75-14.65 109.75-13.75Q109.75-12.95 109.68-12.15 109.62-11.35 109.52-10.58L109.52-10.58 105.8-10.58Q105.85-11.78 105.86-12.85 105.87-13.93 105.87-14.83L105.87-14.83Q105.87-17.05 105.16-18.59 104.45-20.13 103.03-20.94 101.62-21.75 99.5-21.75L99.5-21.75Q96.35-21.75 94.77-19.93 93.2-18.1 93.2-14.7L93.2-14.7 93.2-12.38 93.22-11.88 93.22-9.55Q93.22-8.03 93.67-6.8 94.12-5.58 95.08-4.69 96.05-3.8 97.53-3.34 99.02-2.88 101.07-2.88L101.07-2.88Q103.45-2.88 105.5-3.5 107.55-4.13 109.35-5.2L109.35-5.2 108.97-1.7Q107.35-0.68 105.2-0.06 103.05 0.55 100.42 0.55ZM108.67-10.58L91.32-10.58 91.32-13.63 108.67-13.63 108.67-10.58ZM138.12 0L134.07 0 134.07-15.18Q134.07-17.15 133.53-18.57 133-20 131.78-20.79 130.57-21.58 128.47-21.58L128.47-21.58Q126.55-21.58 125.13-20.85 123.72-20.13 122.85-18.89 121.97-17.65 121.62-16.07L121.62-16.07 120.9-18.95 121.77-18.95Q122.17-20.6 123.17-21.96 124.17-23.33 125.86-24.14 127.55-24.95 130-24.95L130-24.95Q132.9-24.95 134.68-23.85 136.47-22.75 137.3-20.69 138.12-18.63 138.12-15.63L138.12-15.63 138.12 0ZM121.8 0L117.75 0 117.75-24.4 121.8-24.4 121.62-18.55 121.8-18.32 121.8 0ZM155.79 0.5L155.79 0.5Q152.97 0.5 151.24-0.35 149.52-1.2 148.74-2.93 147.97-4.65 147.97-7.23L147.97-7.23 147.97-22.63 151.97-22.63 151.97-7.7Q151.97-5.3 153.07-4.16 154.17-3.03 156.77-3.03L156.77-3.03Q158.24-3.03 159.61-3.35 160.97-3.68 162.17-4.28L162.17-4.28 161.79-0.8Q160.62-0.2 159.04 0.15 157.47 0.5 155.79 0.5ZM161.54-20.8L143.97-20.8 143.97-24.05 161.92-24.05 161.54-20.8ZM151.87-23.65L147.99-23.65 147.97-30.5 152.04-31.03 151.87-23.65ZM168.72-24.4L172.74-24.4 172.74-9.22Q172.74-7.3 173.28-5.86 173.82-4.42 175.04-3.64 176.27-2.85 178.34-2.85L178.34-2.85Q180.29-2.85 181.69-3.56 183.09-4.28 183.98-5.53 184.87-6.78 185.19-8.35L185.19-8.35 185.92-5.48 185.04-5.48Q184.67-3.83 183.67-2.46 182.67-1.1 180.98-0.29 179.29 0.53 176.82 0.53L176.82 0.53Q173.94 0.53 172.16-0.56 170.37-1.65 169.54-3.74 168.72-5.83 168.72-8.78L168.72-8.78 168.72-24.4ZM185.02-24.4L189.07-24.4 189.07 0 185.02 0 185.19-5.85 185.02-6.1 185.02-24.4ZM202.12-14.93L202.12-14.93 201.19-18.05 202.19-18.1Q202.99-21.2 204.94-22.99 206.89-24.78 210.12-24.78L210.12-24.78Q210.92-24.78 211.56-24.65 212.19-24.53 212.69-24.35L212.69-24.35 212.94-20.43Q212.32-20.63 211.56-20.75 210.79-20.88 209.87-20.88L209.87-20.88Q207.12-20.88 205.08-19.35 203.04-17.82 202.12-14.93ZM202.32 0L198.27 0 198.27-24.4 202.22-24.4 202.02-17.2 202.32-16.9 202.32 0ZM229.12 0.55L229.12 0.55Q223.54 0.55 220.72-2.18 217.89-4.9 217.89-9.98L217.89-9.98 217.89-14.33Q217.89-19.48 220.52-22.26 223.14-25.05 228.19-25.05L228.19-25.05Q231.59-25.05 233.87-23.79 236.14-22.53 237.29-20.2 238.44-17.88 238.44-14.65L238.44-14.65 238.44-13.75Q238.44-12.95 238.38-12.15 238.32-11.35 238.22-10.58L238.22-10.58 234.49-10.58Q234.54-11.78 234.55-12.85 234.57-13.93 234.57-14.83L234.57-14.83Q234.57-17.05 233.85-18.59 233.14-20.13 231.73-20.94 230.32-21.75 228.19-21.75L228.19-21.75Q225.04-21.75 223.47-19.93 221.89-18.1 221.89-14.7L221.89-14.7 221.89-12.38 221.92-11.88 221.92-9.55Q221.92-8.03 222.37-6.8 222.82-5.58 223.78-4.69 224.74-3.8 226.23-3.34 227.72-2.88 229.77-2.88L229.77-2.88Q232.14-2.88 234.19-3.5 236.24-4.13 238.04-5.2L238.04-5.2 237.67-1.7Q236.04-0.68 233.89-0.06 231.74 0.55 229.12 0.55ZM237.37-10.58L220.02-10.58 220.02-13.63 237.37-13.63 237.37-10.58ZM276.69 0L266.24 0 266.24-3.43 276.29-3.43Q279.54-3.43 280.9-4.81 282.26-6.2 282.26-8.65L282.26-8.65 282.26-9.55Q282.26-12.05 280.88-13.43 279.49-14.8 276.04-14.8L276.04-14.8 266.26-14.8 266.26-18.07 275.99-18.07Q279.06-18.07 280.38-19.41 281.69-20.75 281.69-23.13L281.69-23.13 281.69-23.58Q281.69-25.93 280.43-27.24 279.16-28.55 275.96-28.55L275.96-28.55 266.16-28.55 266.16-31.95 276.34-31.95Q281.44-31.95 283.64-29.93 285.84-27.9 285.84-24.23L285.84-24.23 285.84-23.73Q285.84-20.8 284.44-19.13 283.04-17.45 280.09-17.13L280.09-17.13 280.06-16.98Q283.44-16.48 284.96-14.63 286.49-12.78 286.49-9.47L286.49-9.47 286.49-8.45Q286.49-4.48 284.19-2.24 281.89 0 276.69 0L276.69 0ZM267.51 0L263.41 0 263.41-31.95 267.51-31.95 267.51 0ZM304.89 0.55L304.89 0.55Q299.31 0.55 296.49-2.18 293.66-4.9 293.66-9.98L293.66-9.98 293.66-14.33Q293.66-19.48 296.29-22.26 298.91-25.05 303.96-25.05L303.96-25.05Q307.36-25.05 309.64-23.79 311.91-22.53 313.06-20.2 314.21-17.88 314.21-14.65L314.21-14.65 314.21-13.75Q314.21-12.95 314.15-12.15 314.09-11.35 313.99-10.58L313.99-10.58 310.26-10.58Q310.31-11.78 310.33-12.85 310.34-13.93 310.34-14.83L310.34-14.83Q310.34-17.05 309.63-18.59 308.91-20.13 307.5-20.94 306.09-21.75 303.96-21.75L303.96-21.75Q300.81-21.75 299.24-19.93 297.66-18.1 297.66-14.7L297.66-14.7 297.66-12.38 297.69-11.88 297.69-9.55Q297.69-8.03 298.14-6.8 298.59-5.58 299.55-4.69 300.51-3.8 302-3.34 303.49-2.88 305.54-2.88L305.54-2.88Q307.91-2.88 309.96-3.5 312.01-4.13 313.81-5.2L313.81-5.2 313.44-1.7Q311.81-0.68 309.66-0.06 307.51 0.55 304.89 0.55ZM313.14-10.58L295.79-10.58 295.79-13.63 313.14-13.63 313.14-10.58ZM331.66-7.3L331.66-7.3Q326.69-7.3 324.03-9.47 321.36-11.65 321.36-15.7L321.36-15.7 321.36-16.32Q321.36-18.85 322.4-20.73 323.44-22.6 325.71-23.66 327.99-24.73 331.66-24.83L331.66-24.83 344.11-25.23 344.11-22.03 336.76-22.28 336.74-22.1Q338.46-21.75 339.56-20.9 340.66-20.05 341.2-18.78 341.74-17.5 341.74-15.8L341.74-15.8 341.74-15.25Q341.74-11.38 339.19-9.34 336.64-7.3 331.66-7.3ZM331.49 6.15L331.49 6.15 332.06 6.15Q334.31 6.15 335.93 5.81 337.54 5.48 338.41 4.75 339.29 4.03 339.29 2.83L339.29 2.83 339.29 2.73Q339.29 1.33 338.28 0.59 337.26-0.15 334.81-0.38L334.81-0.38 327.91-1 329.06-1.05Q327.66-0.85 326.6-0.4 325.54 0.05 324.94 0.79 324.34 1.53 324.34 2.63L324.34 2.63 324.34 2.68Q324.34 3.95 325.21 4.73 326.09 5.5 327.69 5.83 329.29 6.15 331.49 6.15ZM331.99 9.38L331.26 9.38Q327.96 9.38 325.58 8.81 323.19 8.25 321.88 6.99 320.56 5.73 320.56 3.6L320.56 3.6 320.56 3.5Q320.56 2 321.28 1 321.99 0 323.2-0.58 324.41-1.15 325.91-1.35L325.91-1.35 325.89-1.5Q323.84-1.85 322.86-2.71 321.89-3.58 321.89-4.95L321.89-4.95 321.89-4.98Q321.89-5.93 322.33-6.6 322.76-7.28 323.65-7.68 324.54-8.08 325.91-8.18L325.91-8.18 325.91-8.68 330.56-7.5 328.66-7.55Q326.96-7.53 326.31-7.14 325.66-6.75 325.66-5.98L325.66-5.98 325.66-5.95Q325.66-5.13 326.59-4.7 327.51-4.28 329.74-4.03L329.74-4.03 335.66-3.43Q339.54-3.03 341.31-1.56 343.09-0.1 343.09 2.75L343.09 2.75 343.09 2.88Q343.09 5.15 341.74 6.6 340.39 8.05 337.91 8.71 335.44 9.38 331.99 9.38L331.99 9.38ZM331.61-10.3L331.61-10.3Q333.71-10.3 335.1-10.91 336.49-11.53 337.2-12.76 337.91-14 337.91-15.8L337.91-15.8 337.91-16.4Q337.91-18.15 337.23-19.38 336.54-20.6 335.16-21.24 333.79-21.88 331.71-21.88L331.71-21.88 331.56-21.88Q329.31-21.88 327.9-21.19 326.49-20.5 325.85-19.26 325.21-18.03 325.21-16.38L325.21-16.38 325.21-15.8Q325.21-14 325.93-12.78 326.64-11.55 328.06-10.93 329.49-10.3 331.61-10.3ZM354.51 0L350.46 0 350.46-24.4 354.51-24.4 354.51 0ZM352.49-28.4L352.49-28.4Q351.24-28.4 350.62-29.06 350.01-29.73 350.01-30.88L350.01-30.88 350.01-31Q350.01-32.18 350.62-32.83 351.24-33.48 352.49-33.48L352.49-33.48Q353.74-33.48 354.36-32.83 354.99-32.18 354.99-31L354.99-31 354.99-30.88Q354.99-29.7 354.36-29.05 353.74-28.4 352.49-28.4ZM384.19 0L380.14 0 380.14-15.18Q380.14-17.15 379.6-18.57 379.06-20 377.85-20.79 376.64-21.58 374.54-21.58L374.54-21.58Q372.61-21.58 371.2-20.85 369.79-20.13 368.91-18.89 368.04-17.65 367.69-16.07L367.69-16.07 366.96-18.95 367.84-18.95Q368.24-20.6 369.24-21.96 370.24-23.33 371.92-24.14 373.61-24.95 376.06-24.95L376.06-24.95Q378.96-24.95 380.75-23.85 382.54-22.75 383.36-20.69 384.19-18.63 384.19-15.63L384.19-15.63 384.19 0ZM367.86 0L363.81 0 363.81-24.4 367.86-24.4 367.69-18.55 367.86-18.32 367.86 0ZM400.68 0.55L400.68 0.55Q397.73 0.55 395.53-0.09 393.33-0.73 391.88-1.48L391.88-1.48 391.51-5.23Q393.33-4.28 395.52-3.58 397.71-2.88 400.48-2.88L400.48-2.88Q403.31-2.88 404.73-3.78 406.16-4.67 406.16-6.45L406.16-6.45 406.16-6.73Q406.16-7.88 405.62-8.63 405.08-9.38 403.68-9.95 402.28-10.53 399.71-11.1L399.71-11.1Q396.63-11.78 394.86-12.69 393.08-13.6 392.32-14.95 391.56-16.3 391.56-18.25L391.56-18.25 391.56-18.48Q391.56-21.68 393.78-23.33 396.01-24.98 400.48-24.98L400.48-24.98Q403.36-24.98 405.47-24.33 407.58-23.68 408.93-22.88L408.93-22.88 409.31-19.45Q407.68-20.4 405.58-21.03 403.48-21.65 400.86-21.65L400.86-21.65Q398.96-21.65 397.78-21.26 396.61-20.88 396.08-20.16 395.56-19.45 395.56-18.45L395.56-18.45 395.56-18.25Q395.56-17.15 396.08-16.39 396.61-15.63 397.97-15.06 399.33-14.5 401.76-13.98L401.76-13.98Q404.88-13.35 406.72-12.48 408.56-11.6 409.36-10.26 410.16-8.93 410.16-6.83L410.16-6.83 410.16-6.4Q410.16-2.95 407.76-1.2 405.36 0.55 400.68 0.55Z" opacity="1" transform="matrix(1,0,0,1,0,0)" fill="black" class="slogan-text-1" id="SvgjsPath2166" stroke-width="7" stroke="black" stroke-linejoin="round"></path></svg></g></svg></g></svg></g></svg></g></svg></g></svg></g></svg></g></mask><g transform="matrix(1,0,0,1,39.55199999999999,61.951793559225656)"><svg viewBox="0 0 316.416 123.29641288154868" height="123.29641288154868" width="316.416"><g><svg viewBox="0 0 316.416 123.29641288154868" height="123.29641288154868" width="316.416"><g><svg viewBox="0 0 316.416 123.29641288154868" height="123.29641288154868" width="316.416"><g><svg viewBox="0 0 316.416 123.29641288154868" height="123.29641288154868" width="316.416"><g id="textblocktransform"><svg viewBox="0 0 316.416 123.29641288154868" height="123.29641288154868" width="316.416" id="textblock"><g><svg viewBox="0 0 316.416 72.00191534106229" height="72.00191534106229" width="316.416"><g transform="matrix(1,0,0,1,0,0)"><svg width="316.416" viewBox="-1.75 -39 186.43 43.2" height="72.00191534106229" data-palette-color="#fbfbf8"><path d="M27.4 0L24.1-9.25 8.7-9.25 5.5 0 2.25 0 14.9-35 17.95-35 31.05 0 27.4 0ZM16.25-31.2L9.55-11.75 23.2-11.75 16.25-31.2ZM39.6 0L30.35-25 34-25.25 41.25-3.85 49.1-25 52.7-25.25 42.6 0 39.6 0ZM57.4-12.3L57.4-11.5Q57.4-2.7 65.8-2.7L65.8-2.7Q69.34-2.7 72.3-3.65L72.3-3.65Q73.05-3.9 73.34-4.05L73.34-4.05 74.09-1.4Q72.34-0.35 67.75 0.1L67.75 0.1Q66.45 0.2 65 0.2L65 0.2Q60.8 0.2 58-1.9L58-1.9Q54.15-4.75 54.15-11.4 54.15-18.05 57.62-21.63 61.1-25.2 66.05-25.2 71-25.2 73.5-22L73.5-22Q75.4-19.45 75.4-15.25L75.4-15.25Q75.4-14.25 75.3-13.15L75.3-13.15 57.45-13.15Q57.4-12.75 57.4-12.3L57.4-12.3ZM66.25-22.1L66.25-22.1Q63.15-22.1 60.95-20.23 58.75-18.35 57.9-15.4L57.9-15.4 72.45-15.4Q72.2-20.95 68.15-21.85L68.15-21.85Q67.25-22.1 66.25-22.1ZM82.94-25.25L82.94-22.25Q86.69-25 90.04-25.15L90.04-25.15Q93.09-25.15 94.74-24.4 96.39-23.65 97.47-22.28 98.54-20.9 98.54-18.4L98.54-18.4 98.54 0 95.29 0 95.29-17.55Q95.29-19.4 94.49-20.4L94.49-20.4Q92.89-22.25 89.59-22.25L89.59-22.25Q86.44-22.1 82.94-20.2L82.94-20.2 82.94 0 79.69 0 79.69-25 82.94-25.25ZM115.39-3.6L115.99-0.9Q115.09 0 112.74 0L112.74 0Q109.44 0 108.29-1.7L108.29-1.7Q106.34-3.55 106.34-6.7L106.34-6.7 106.34-22.1 103.54-22.1 103.99-25 106.34-25 106.34-29.95 109.59-30.25 109.59-25 115.39-25 115.39-22.1 109.59-22.1 109.59-5.9Q109.59-3 112.59-3L112.59-3Q113.89-3 115.39-3.6L115.39-3.6ZM126.04-3.2L126.04-3.2Q127.14-2.8 129.54-2.8 131.94-2.8 135.74-4.75L135.74-4.75 135.74-25 138.99-25.25 138.99 0 135.74 0 135.74-2.7Q132.04 0.15 128.19 0.15L128.19 0.15Q123.39 0.15 121.24-2.7L121.24-2.7Q120.14-4.1 120.14-6.6L120.14-6.6 120.14-25 123.39-25.25 123.39-7.45Q123.39-4.35 126.04-3.2ZM159.84-24.5L158.54-21.5Q157.74-21.95 156.84-21.95 155.94-21.95 155.84-21.9L155.84-21.9Q153.94-21.9 152.01-20.53 150.09-19.15 148.74-17.45L148.74-17.45 148.74 0 145.49 0 145.49-25 148.74-25.25 148.74-19.65Q150.59-22 151.89-22.95L151.89-22.95Q154.29-24.75 156.49-24.85L156.49-24.85Q156.79-24.9 157.59-24.9 158.39-24.9 159.84-24.5L159.84-24.5ZM163.03-19.9L162.13-22.3Q167.58-25 171.68-25.15L171.68-25.15Q174.93-25.15 176.71-24.33 178.48-23.5 179.58-22.03 180.68-20.55 180.68-17.9L180.68-17.9 180.68 0 177.43 0 177.43-1.9Q170.58 0.2 168.63 0.2L168.63 0.2Q168.53 0.2 168.48 0.2L168.48 0.2Q163.98 0.2 162.33-2.55L162.33-2.55Q161.73-3.55 161.66-4.5 161.58-5.45 161.58-6.1L161.58-6.1Q161.58-7.9 162.98-9.33 164.38-10.75 166.33-11.25L166.33-11.25Q169.63-12.1 177.43-12.75L177.43-12.75 177.43-16.8Q177.43-22.25 171.73-22.25L171.73-22.25Q167.73-22.25 163.03-19.9L163.03-19.9ZM164.63-5.7L164.63-5.7Q164.63-2.1 169.58-2.1L169.58-2.1Q173.53-2.1 177.43-3.8L177.43-3.8 177.43-10.95Q169.63-9.85 167.78-9.25L167.78-9.25Q164.63-8.25 164.63-5.7Z" opacity="1" transform="matrix(1,0,0,1,0,0)" fill="#fbfbf8" class="wordmark-text-0" data-fill-palette-color="primary" id="text-0"></path></svg></g></svg></g><g transform="matrix(1,0,0,1,3.5,86.1802786264934)"><svg viewBox="0 0 309.416 37.11613425505527" height="37.11613425505527" width="309.416"><g transform="matrix(1,0,0,1,0,0)"><svg width="309.416" viewBox="-2.77 -37.48 416.93 50.86" height="37.11613425505527" data-palette-color="#fbfbf8"><path d="M5.43 0L1.23 0 11.23-31.95 17.78-31.95 27.8 0 23.6 0 14.83-29.15 14.2-29.15 5.43 0ZM21.78-9.43L7.23-9.43 7.23-12.88 21.78-12.88 21.78-9.43ZM42.3 0.53L42.3 0.53Q37.9 0.53 35.6-2.2 33.3-4.93 33.3-10.15L33.3-10.15 33.3-14.18Q33.3-19.43 35.62-22.19 37.95-24.95 42.47-24.95L42.47-24.95Q44.72-24.95 46.37-24.19 48.02-23.43 49.05-22.05 50.07-20.68 50.42-18.8L50.42-18.8 51.75-18.8 50.55-15.08Q50.47-17.23 49.59-18.69 48.7-20.15 47.19-20.9 45.67-21.65 43.72-21.65L43.72-21.65Q40.62-21.65 38.99-19.85 37.35-18.05 37.35-14.55L37.35-14.55 37.35-9.9Q37.35-6.45 38.99-4.65 40.62-2.85 43.72-2.85L43.72-2.85Q45.57-2.85 47-3.56 48.42-4.28 49.36-5.54 50.3-6.8 50.65-8.4L50.65-8.4 51.65-5.5 50.45-5.5Q50.1-3.85 49.11-2.48 48.12-1.1 46.46-0.29 44.8 0.53 42.3 0.53ZM54.5 0L50.45 0 50.62-5.9 50.55-7.2 50.55-17.4 50.57-18.25 50.47-25.18 50.47-33.13 54.5-33.13 54.5 0ZM72.45-2.78L73.05-2.78 79.8-24.4 84-24.4 76.07 0 69.42 0 61.5-24.4 65.7-24.4 72.45-2.78ZM100.42 0.55L100.42 0.55Q94.85 0.55 92.02-2.18 89.2-4.9 89.2-9.98L89.2-9.98 89.2-14.33Q89.2-19.48 91.82-22.26 94.45-25.05 99.5-25.05L99.5-25.05Q102.9-25.05 105.17-23.79 107.45-22.53 108.6-20.2 109.75-17.88 109.75-14.65L109.75-14.65 109.75-13.75Q109.75-12.95 109.68-12.15 109.62-11.35 109.52-10.58L109.52-10.58 105.8-10.58Q105.85-11.78 105.86-12.85 105.87-13.93 105.87-14.83L105.87-14.83Q105.87-17.05 105.16-18.59 104.45-20.13 103.03-20.94 101.62-21.75 99.5-21.75L99.5-21.75Q96.35-21.75 94.77-19.93 93.2-18.1 93.2-14.7L93.2-14.7 93.2-12.38 93.22-11.88 93.22-9.55Q93.22-8.03 93.67-6.8 94.12-5.58 95.08-4.69 96.05-3.8 97.53-3.34 99.02-2.88 101.07-2.88L101.07-2.88Q103.45-2.88 105.5-3.5 107.55-4.13 109.35-5.2L109.35-5.2 108.97-1.7Q107.35-0.68 105.2-0.06 103.05 0.55 100.42 0.55ZM108.67-10.58L91.32-10.58 91.32-13.63 108.67-13.63 108.67-10.58ZM138.12 0L134.07 0 134.07-15.18Q134.07-17.15 133.53-18.57 133-20 131.78-20.79 130.57-21.58 128.47-21.58L128.47-21.58Q126.55-21.58 125.13-20.85 123.72-20.13 122.85-18.89 121.97-17.65 121.62-16.07L121.62-16.07 120.9-18.95 121.77-18.95Q122.17-20.6 123.17-21.96 124.17-23.33 125.86-24.14 127.55-24.95 130-24.95L130-24.95Q132.9-24.95 134.68-23.85 136.47-22.75 137.3-20.69 138.12-18.63 138.12-15.63L138.12-15.63 138.12 0ZM121.8 0L117.75 0 117.75-24.4 121.8-24.4 121.62-18.55 121.8-18.32 121.8 0ZM155.79 0.5L155.79 0.5Q152.97 0.5 151.24-0.35 149.52-1.2 148.74-2.93 147.97-4.65 147.97-7.23L147.97-7.23 147.97-22.63 151.97-22.63 151.97-7.7Q151.97-5.3 153.07-4.16 154.17-3.03 156.77-3.03L156.77-3.03Q158.24-3.03 159.61-3.35 160.97-3.68 162.17-4.28L162.17-4.28 161.79-0.8Q160.62-0.2 159.04 0.15 157.47 0.5 155.79 0.5ZM161.54-20.8L143.97-20.8 143.97-24.05 161.92-24.05 161.54-20.8ZM151.87-23.65L147.99-23.65 147.97-30.5 152.04-31.03 151.87-23.65ZM168.72-24.4L172.74-24.4 172.74-9.22Q172.74-7.3 173.28-5.86 173.82-4.42 175.04-3.64 176.27-2.85 178.34-2.85L178.34-2.85Q180.29-2.85 181.69-3.56 183.09-4.28 183.98-5.53 184.87-6.78 185.19-8.35L185.19-8.35 185.92-5.48 185.04-5.48Q184.67-3.83 183.67-2.46 182.67-1.1 180.98-0.29 179.29 0.53 176.82 0.53L176.82 0.53Q173.94 0.53 172.16-0.56 170.37-1.65 169.54-3.74 168.72-5.83 168.72-8.78L168.72-8.78 168.72-24.4ZM185.02-24.4L189.07-24.4 189.07 0 185.02 0 185.19-5.85 185.02-6.1 185.02-24.4ZM202.12-14.93L202.12-14.93 201.19-18.05 202.19-18.1Q202.99-21.2 204.94-22.99 206.89-24.78 210.12-24.78L210.12-24.78Q210.92-24.78 211.56-24.65 212.19-24.53 212.69-24.35L212.69-24.35 212.94-20.43Q212.32-20.63 211.56-20.75 210.79-20.88 209.87-20.88L209.87-20.88Q207.12-20.88 205.08-19.35 203.04-17.82 202.12-14.93ZM202.32 0L198.27 0 198.27-24.4 202.22-24.4 202.02-17.2 202.32-16.9 202.32 0ZM229.12 0.55L229.12 0.55Q223.54 0.55 220.72-2.18 217.89-4.9 217.89-9.98L217.89-9.98 217.89-14.33Q217.89-19.48 220.52-22.26 223.14-25.05 228.19-25.05L228.19-25.05Q231.59-25.05 233.87-23.79 236.14-22.53 237.29-20.2 238.44-17.88 238.44-14.65L238.44-14.65 238.44-13.75Q238.44-12.95 238.38-12.15 238.32-11.35 238.22-10.58L238.22-10.58 234.49-10.58Q234.54-11.78 234.55-12.85 234.57-13.93 234.57-14.83L234.57-14.83Q234.57-17.05 233.85-18.59 233.14-20.13 231.73-20.94 230.32-21.75 228.19-21.75L228.19-21.75Q225.04-21.75 223.47-19.93 221.89-18.1 221.89-14.7L221.89-14.7 221.89-12.38 221.92-11.88 221.92-9.55Q221.92-8.03 222.37-6.8 222.82-5.58 223.78-4.69 224.74-3.8 226.23-3.34 227.72-2.88 229.77-2.88L229.77-2.88Q232.14-2.88 234.19-3.5 236.24-4.13 238.04-5.2L238.04-5.2 237.67-1.7Q236.04-0.68 233.89-0.06 231.74 0.55 229.12 0.55ZM237.37-10.58L220.02-10.58 220.02-13.63 237.37-13.63 237.37-10.58ZM276.69 0L266.24 0 266.24-3.43 276.29-3.43Q279.54-3.43 280.9-4.81 282.26-6.2 282.26-8.65L282.26-8.65 282.26-9.55Q282.26-12.05 280.88-13.43 279.49-14.8 276.04-14.8L276.04-14.8 266.26-14.8 266.26-18.07 275.99-18.07Q279.06-18.07 280.38-19.41 281.69-20.75 281.69-23.13L281.69-23.13 281.69-23.58Q281.69-25.93 280.43-27.24 279.16-28.55 275.96-28.55L275.96-28.55 266.16-28.55 266.16-31.95 276.34-31.95Q281.44-31.95 283.64-29.93 285.84-27.9 285.84-24.23L285.84-24.23 285.84-23.73Q285.84-20.8 284.44-19.13 283.04-17.45 280.09-17.13L280.09-17.13 280.06-16.98Q283.44-16.48 284.96-14.63 286.49-12.78 286.49-9.47L286.49-9.47 286.49-8.45Q286.49-4.48 284.19-2.24 281.89 0 276.69 0L276.69 0ZM267.51 0L263.41 0 263.41-31.95 267.51-31.95 267.51 0ZM304.89 0.55L304.89 0.55Q299.31 0.55 296.49-2.18 293.66-4.9 293.66-9.98L293.66-9.98 293.66-14.33Q293.66-19.48 296.29-22.26 298.91-25.05 303.96-25.05L303.96-25.05Q307.36-25.05 309.64-23.79 311.91-22.53 313.06-20.2 314.21-17.88 314.21-14.65L314.21-14.65 314.21-13.75Q314.21-12.95 314.15-12.15 314.09-11.35 313.99-10.58L313.99-10.58 310.26-10.58Q310.31-11.78 310.33-12.85 310.34-13.93 310.34-14.83L310.34-14.83Q310.34-17.05 309.63-18.59 308.91-20.13 307.5-20.94 306.09-21.75 303.96-21.75L303.96-21.75Q300.81-21.75 299.24-19.93 297.66-18.1 297.66-14.7L297.66-14.7 297.66-12.38 297.69-11.88 297.69-9.55Q297.69-8.03 298.14-6.8 298.59-5.58 299.55-4.69 300.51-3.8 302-3.34 303.49-2.88 305.54-2.88L305.54-2.88Q307.91-2.88 309.96-3.5 312.01-4.13 313.81-5.2L313.81-5.2 313.44-1.7Q311.81-0.68 309.66-0.06 307.51 0.55 304.89 0.55ZM313.14-10.58L295.79-10.58 295.79-13.63 313.14-13.63 313.14-10.58ZM331.66-7.3L331.66-7.3Q326.69-7.3 324.03-9.47 321.36-11.65 321.36-15.7L321.36-15.7 321.36-16.32Q321.36-18.85 322.4-20.73 323.44-22.6 325.71-23.66 327.99-24.73 331.66-24.83L331.66-24.83 344.11-25.23 344.11-22.03 336.76-22.28 336.74-22.1Q338.46-21.75 339.56-20.9 340.66-20.05 341.2-18.78 341.74-17.5 341.74-15.8L341.74-15.8 341.74-15.25Q341.74-11.38 339.19-9.34 336.64-7.3 331.66-7.3ZM331.49 6.15L331.49 6.15 332.06 6.15Q334.31 6.15 335.93 5.81 337.54 5.48 338.41 4.75 339.29 4.03 339.29 2.83L339.29 2.83 339.29 2.73Q339.29 1.33 338.28 0.59 337.26-0.15 334.81-0.38L334.81-0.38 327.91-1 329.06-1.05Q327.66-0.85 326.6-0.4 325.54 0.05 324.94 0.79 324.34 1.53 324.34 2.63L324.34 2.63 324.34 2.68Q324.34 3.95 325.21 4.73 326.09 5.5 327.69 5.83 329.29 6.15 331.49 6.15ZM331.99 9.38L331.26 9.38Q327.96 9.38 325.58 8.81 323.19 8.25 321.88 6.99 320.56 5.73 320.56 3.6L320.56 3.6 320.56 3.5Q320.56 2 321.28 1 321.99 0 323.2-0.58 324.41-1.15 325.91-1.35L325.91-1.35 325.89-1.5Q323.84-1.85 322.86-2.71 321.89-3.58 321.89-4.95L321.89-4.95 321.89-4.98Q321.89-5.93 322.33-6.6 322.76-7.28 323.65-7.68 324.54-8.08 325.91-8.18L325.91-8.18 325.91-8.68 330.56-7.5 328.66-7.55Q326.96-7.53 326.31-7.14 325.66-6.75 325.66-5.98L325.66-5.98 325.66-5.95Q325.66-5.13 326.59-4.7 327.51-4.28 329.74-4.03L329.74-4.03 335.66-3.43Q339.54-3.03 341.31-1.56 343.09-0.1 343.09 2.75L343.09 2.75 343.09 2.88Q343.09 5.15 341.74 6.6 340.39 8.05 337.91 8.71 335.44 9.38 331.99 9.38L331.99 9.38ZM331.61-10.3L331.61-10.3Q333.71-10.3 335.1-10.91 336.49-11.53 337.2-12.76 337.91-14 337.91-15.8L337.91-15.8 337.91-16.4Q337.91-18.15 337.23-19.38 336.54-20.6 335.16-21.24 333.79-21.88 331.71-21.88L331.71-21.88 331.56-21.88Q329.31-21.88 327.9-21.19 326.49-20.5 325.85-19.26 325.21-18.03 325.21-16.38L325.21-16.38 325.21-15.8Q325.21-14 325.93-12.78 326.64-11.55 328.06-10.93 329.49-10.3 331.61-10.3ZM354.51 0L350.46 0 350.46-24.4 354.51-24.4 354.51 0ZM352.49-28.4L352.49-28.4Q351.24-28.4 350.62-29.06 350.01-29.73 350.01-30.88L350.01-30.88 350.01-31Q350.01-32.18 350.62-32.83 351.24-33.48 352.49-33.48L352.49-33.48Q353.74-33.48 354.36-32.83 354.99-32.18 354.99-31L354.99-31 354.99-30.88Q354.99-29.7 354.36-29.05 353.74-28.4 352.49-28.4ZM384.19 0L380.14 0 380.14-15.18Q380.14-17.15 379.6-18.57 379.06-20 377.85-20.79 376.64-21.58 374.54-21.58L374.54-21.58Q372.61-21.58 371.2-20.85 369.79-20.13 368.91-18.89 368.04-17.65 367.69-16.07L367.69-16.07 366.96-18.95 367.84-18.95Q368.24-20.6 369.24-21.96 370.24-23.33 371.92-24.14 373.61-24.95 376.06-24.95L376.06-24.95Q378.96-24.95 380.75-23.85 382.54-22.75 383.36-20.69 384.19-18.63 384.19-15.63L384.19-15.63 384.19 0ZM367.86 0L363.81 0 363.81-24.4 367.86-24.4 367.69-18.55 367.86-18.32 367.86 0ZM400.68 0.55L400.68 0.55Q397.73 0.55 395.53-0.09 393.33-0.73 391.88-1.48L391.88-1.48 391.51-5.23Q393.33-4.28 395.52-3.58 397.71-2.88 400.48-2.88L400.48-2.88Q403.31-2.88 404.73-3.78 406.16-4.67 406.16-6.45L406.16-6.45 406.16-6.73Q406.16-7.88 405.62-8.63 405.08-9.38 403.68-9.95 402.28-10.53 399.71-11.1L399.71-11.1Q396.63-11.78 394.86-12.69 393.08-13.6 392.32-14.95 391.56-16.3 391.56-18.25L391.56-18.25 391.56-18.48Q391.56-21.68 393.78-23.33 396.01-24.98 400.48-24.98L400.48-24.98Q403.36-24.98 405.47-24.33 407.58-23.68 408.93-22.88L408.93-22.88 409.31-19.45Q407.68-20.4 405.58-21.03 403.48-21.65 400.86-21.65L400.86-21.65Q398.96-21.65 397.78-21.26 396.61-20.88 396.08-20.16 395.56-19.45 395.56-18.45L395.56-18.45 395.56-18.25Q395.56-17.15 396.08-16.39 396.61-15.63 397.97-15.06 399.33-14.5 401.76-13.98L401.76-13.98Q404.88-13.35 406.72-12.48 408.56-11.6 409.36-10.26 410.16-8.93 410.16-6.83L410.16-6.83 410.16-6.4Q410.16-2.95 407.76-1.2 405.36 0.55 400.68 0.55Z" opacity="1" transform="matrix(1,0,0,1,0,0)" fill="#fbfbf8" class="slogan-text-1" data-fill-palette-color="secondary" id="text-1"></path></svg></g></svg></g></svg></g></svg></g></svg></g></svg></g></svg></g><g mask="url(#b7128d24-130a-476d-a304-d90c5fc959ae)"><g transform="matrix(3.358904109589041, 0, 0, 3.358904109589041, 32.83780821917807, 1)"><svg xmlns="http://www.w3.org/2000/svg" xmlns:xlink="http://www.w3.org/1999/xlink" version="1.1" x="0" y="0" viewBox="0.8 12.5 98.2 73" enable-background="new 0 0 100 100" xml:space="preserve" height="73" width="98.2" class="icon-none" data-fill-palette-color="accent" id="none"><g fill="#ffff00" data-fill-palette-color="accent"><polygon points="96.6,80.6 64.6,36.1 49.3,54.1 33,19.4 3.6,80.4 0.8,79.1 33.1,12.5 50,48.6 64.8,31.2 99,78.9  " fill="#ffff00" data-fill-palette-color="accent"></polygon><polygon points="27.8,57.6 11.2,46.6 12.8,44.1 27.3,53.7 34.3,46.3 39.8,49.4 45.2,43.3 47.4,45.3 40.4,53.2 34.9,50  " fill="#ffff00" data-fill-palette-color="accent"></polygon><path d="M62.1 33.8H59.1C59.1 30.3 56.2 27.4 52.7 27.4S46.3 30.3 46.3 33.8H43.3C43.3 28.6 47.5 24.4 52.7 24.4S62.1 28.6 62.1 33.8" fill="#ffff00" data-fill-palette-color="accent"></path><path d="M42 83.8L41.9 80.8C43 80.8 44.1 80.6 45.2 80.4L45.8 83.3C44.5 83.6 43.2 83.7 42 83.8M38.3 83.7C37.1 83.6 35.8 83.3 34.6 83L35.4 80.1C36.5 80.4 37.6 80.6 38.6 80.7zM49.3 82.4L48.3 79.6C49.3 79.2 50.3 78.8 51.3 78.3L52.7 81C51.6 81.5 50.5 82 49.3 82.4M55.9 79L54.1 76.6C55 76 55.8 75.2 56.6 74.5L58.7 76.6C57.9 77.4 56.9 78.2 55.9 79M61.2 73.7L58.8 71.9C59.5 71 60.1 70.1 60.6 69.1L63.2 70.5C62.7 71.7 62 72.7 61.2 73.7M64.8 67.2L62 66.2C62.1 65.9 62.2 65.5 62.3 65.2L62.9 63.1 65.8 63.7 65.2 66.1C65.1 66.4 64.9 66.8 64.8 67.2M66.3 59.9L63.3 59.7V58.4C63.3 57.7 63.3 57.1 63.2 56.4L66.2 56.1C66.3 56.8 66.3 57.6 66.3 58.3 66.4 58.9 66.4 59.4 66.3 59.9M62.8 53.2C62.5 52.1 62.2 51.1 61.8 50.1L64.6 49C65.1 50.2 65.4 51.3 65.7 52.6zM60.3 47.1C59.7 46.2 59.1 45.2 58.4 44.4L60.7 42.5C61.5 43.5 62.2 44.5 62.8 45.6zM56.2 42C55.4 41.3 54.5 40.6 53.6 39.9L55.3 37.4C56.3 38.1 57.3 38.9 58.2 39.7zM50.8 38.3C49.8 37.8 48.8 37.4 47.7 37.1L48.6 34.2C49.8 34.6 51 35 52.1 35.6z" fill="#ffff00" data-fill-palette-color="accent"></path><path d="M29.2 85.5C27.8 85.5 26.5 84.9 25.6 83.8 24.8 82.8 24.4 81.6 24.5 80.3S25.2 77.9 26.2 77.1C27.1 76.4 28.1 76 29.3 76 30.7 76 32 76.6 32.9 77.7 34.6 79.7 34.3 82.7 32.3 84.4 31.4 85.1 30.3 85.5 29.2 85.5M29.2 79C28.9 79 28.5 79.1 28.1 79.4S27.5 80.1 27.5 80.6 27.6 81.5 27.9 81.9 28.7 82.5 29.2 82.5C29.5 82.5 29.9 82.4 30.3 82.1 31 81.5 31.1 80.4 30.5 79.6 30.2 79.2 29.7 79 29.2 79" fill="#ffff00" data-fill-palette-color="accent"></path><rect x="38.8" y="31.2" width="3" height="13.5" fill="#ffff00" data-fill-palette-color="accent"></rect><rect x="34.8" y="23" width="3" height="16.4" fill="#ffff00" data-fill-palette-color="accent"></rect></g></svg></g></g></svg></g><defs></defs></svg><rect width="395.52" height="247.2" fill="none" stroke="none" visibility="hidden"></rect></g></svg></g></svg>