<svg width="284" height="84" viewBox="0 0 284 84" fill="none" xmlns="http://www.w3.org/2000/svg">
<path d="M273 84H10.5C4.62 84 0 79.38 0 73.5V10.5C0 4.62 4.62 0 10.5 0H273C278.88 0 283.5 4.62 283.5 10.5V73.5C283.5 79.17 278.88 84 273 84Z" fill="black"/>
<path d="M273 1.68C277.83 1.68 281.82 5.67 281.82 10.5V73.5C281.82 78.33 277.83 82.32 273 82.32H10.5C5.67 82.32 1.68 78.33 1.68 73.5V10.5C1.68 5.67 5.67 1.68 10.5 1.68H273ZM273 0H10.5C4.62 0 0 4.62 0 10.5V73.5C0 79.38 4.62 84 10.5 84H273C278.88 84 283.5 79.38 283.5 73.5V10.5C283.5 4.83 278.88 0 273 0Z" fill="#A6A6A6"/>
<path d="M99.5399 21.42C99.5399 23.1 99.1199 24.57 98.0699 25.62C96.8099 26.88 95.3399 27.51 93.4499 27.51C91.5599 27.51 90.0899 26.88 88.8299 25.62C87.5699 24.36 86.9399 22.89 86.9399 21C86.9399 19.11 87.5699 17.64 88.8299 16.38C90.0899 15.12 91.5599 14.49 93.4499 14.49C94.2899 14.49 95.1299 14.7 95.9699 15.12C96.8099 15.54 97.4399 15.96 97.8599 16.59L96.8099 17.64C95.9699 16.59 94.9199 16.17 93.4499 16.17C92.1899 16.17 90.9299 16.59 90.0899 17.64C89.0399 18.48 88.6199 19.74 88.6199 21.21C88.6199 22.68 89.0399 23.94 90.0899 24.78C91.1399 25.62 92.1899 26.25 93.4499 26.25C94.9199 26.25 95.9699 25.83 97.0199 24.78C97.6499 24.15 98.0699 23.31 98.0699 22.26H93.4499V20.79H99.5399C99.5399 20.79 99.5399 21.21 99.5399 21.42Z" fill="white" stroke="white" stroke-width="0.2" stroke-miterlimit="10"/>
<path d="M109.2 16.17H103.53V20.16H108.78V21.63H103.53V25.62H109.2V27.3H101.85V14.7H109.2V16.17Z" fill="white" stroke="white" stroke-width="0.2" stroke-miterlimit="10"/>
<path d="M116.13 27.3H114.45V16.17H110.88V14.7H119.7V16.17H116.13V27.3Z" fill="white" stroke="white" stroke-width="0.2" stroke-miterlimit="10"/>
<path d="M125.79 27.3V14.7H127.47V27.3H125.79Z" fill="white" stroke="white" stroke-width="0.2" stroke-miterlimit="10"/>
<path d="M134.61 27.3H132.93V16.17H129.36V14.7H137.97V16.17H134.4V27.3H134.61Z" fill="white" stroke="white" stroke-width="0.2" stroke-miterlimit="10"/>
<path d="M154.56 25.62C153.3 26.88 151.83 27.51 149.94 27.51C148.05 27.51 146.58 26.88 145.32 25.62C144.06 24.36 143.43 22.89 143.43 21C143.43 19.11 144.06 17.64 145.32 16.38C146.58 15.12 148.05 14.49 149.94 14.49C151.83 14.49 153.3 15.12 154.56 16.38C155.82 17.64 156.45 19.11 156.45 21C156.45 22.89 155.82 24.36 154.56 25.62ZM146.58 24.57C147.42 25.41 148.68 26.04 149.94 26.04C151.2 26.04 152.46 25.62 153.3 24.57C154.14 23.73 154.77 22.47 154.77 21C154.77 19.53 154.35 18.27 153.3 17.43C152.46 16.59 151.2 15.96 149.94 15.96C148.68 15.96 147.42 16.38 146.58 17.43C145.74 18.27 145.11 19.53 145.11 21C145.11 22.47 145.53 23.73 146.58 24.57Z" fill="white" stroke="white" stroke-width="0.2" stroke-miterlimit="10"/>
<path d="M158.76 27.3V14.7H160.65L166.74 24.57V22.05V14.7H168.42V27.3H166.74L160.23 17.01V19.53V27.3H158.76Z" fill="white" stroke="white" stroke-width="0.2" stroke-miterlimit="10"/>
<path d="M143.01 45.78C137.97 45.78 133.98 49.56 133.98 54.81C133.98 59.85 137.97 63.84 143.01 63.84C148.05 63.84 152.04 60.06 152.04 54.81C152.04 49.35 148.05 45.78 143.01 45.78ZM143.01 60.06C140.28 60.06 137.97 57.75 137.97 54.6C137.97 51.45 140.28 49.14 143.01 49.14C145.74 49.14 148.05 51.24 148.05 54.6C148.05 57.75 145.74 60.06 143.01 60.06ZM123.48 45.78C118.44 45.78 114.45 49.56 114.45 54.81C114.45 59.85 118.44 63.84 123.48 63.84C128.52 63.84 132.51 60.06 132.51 54.81C132.51 49.35 128.52 45.78 123.48 45.78ZM123.48 60.06C120.75 60.06 118.44 57.75 118.44 54.6C118.44 51.45 120.75 49.14 123.48 49.14C126.21 49.14 128.52 51.24 128.52 54.6C128.52 57.75 126.21 60.06 123.48 60.06ZM100.17 48.51V52.29H109.2C108.99 54.39 108.15 56.07 107.1 57.12C105.84 58.38 103.74 59.85 100.17 59.85C94.5001 59.85 90.3001 55.44 90.3001 49.77C90.3001 44.1 94.7101 39.69 100.17 39.69C103.11 39.69 105.42 40.95 107.1 42.42L109.83 39.69C107.52 37.59 104.58 35.91 100.38 35.91C92.8201 35.91 86.3101 42.21 86.3101 49.77C86.3101 57.33 92.8201 63.63 100.38 63.63C104.58 63.63 107.52 62.37 110.04 59.64C112.56 57.12 113.4 53.55 113.4 50.82C113.4 49.98 113.4 49.14 113.19 48.51H100.17V48.51ZM195.51 51.45C194.67 49.35 192.57 45.78 187.95 45.78C183.33 45.78 179.55 49.35 179.55 54.81C179.55 59.85 183.33 63.84 188.37 63.84C192.36 63.84 194.88 61.32 195.72 59.85L192.78 57.75C191.73 59.22 190.47 60.27 188.37 60.27C186.27 60.27 185.01 59.43 183.96 57.54L195.93 52.5L195.51 51.45ZM183.33 54.39C183.33 51.03 186.06 49.14 187.95 49.14C189.42 49.14 190.89 49.98 191.31 51.03L183.33 54.39ZM173.46 63H177.45V36.75H173.46V63ZM167.16 47.67C166.11 46.62 164.43 45.57 162.33 45.57C157.92 45.57 153.72 49.56 153.72 54.6C153.72 59.64 157.71 63.42 162.33 63.42C164.43 63.42 166.11 62.37 166.95 61.32H167.16V62.58C167.16 65.94 165.27 67.83 162.33 67.83C160.02 67.83 158.34 66.15 157.92 64.68L154.56 66.15C155.61 68.46 158.13 71.4 162.54 71.4C167.16 71.4 170.94 68.67 170.94 62.16V46.2H167.16V47.67V47.67ZM162.54 60.06C159.81 60.06 157.5 57.75 157.5 54.6C157.5 51.45 159.81 49.14 162.54 49.14C165.27 49.14 167.37 51.45 167.37 54.6C167.37 57.75 165.27 60.06 162.54 60.06ZM213.78 36.75H204.33V63H208.32V53.13H213.78C218.19 53.13 222.39 49.98 222.39 44.94C222.39 39.9 218.19 36.75 213.78 36.75ZM213.99 49.35H208.32V40.32H213.99C216.93 40.32 218.61 42.84 218.61 44.73C218.4 47.04 216.72 49.35 213.99 49.35ZM238.14 45.57C235.2 45.57 232.26 46.83 231.21 49.56L234.78 51.03C235.62 49.56 236.88 49.14 238.35 49.14C240.45 49.14 242.34 50.4 242.55 52.5V52.71C241.92 52.29 240.24 51.66 238.56 51.66C234.78 51.66 231 53.76 231 57.54C231 61.11 234.15 63.42 237.51 63.42C240.24 63.42 241.5 62.16 242.55 60.9H242.76V63H246.54V52.92C246.12 48.3 242.55 45.57 238.14 45.57ZM237.72 60.06C236.46 60.06 234.57 59.43 234.57 57.75C234.57 55.65 236.88 55.02 238.77 55.02C240.45 55.02 241.29 55.44 242.34 55.86C241.92 58.38 239.82 60.06 237.72 60.06ZM259.77 46.2L255.36 57.54H255.15L250.53 46.2H246.33L253.26 62.16L249.27 70.98H253.26L263.97 46.2H259.77ZM224.49 63H228.48V36.75H224.49V63Z" fill="white"/>
<path d="M21.84 15.75C21.21 16.38 20.79 17.43 20.79 18.69V65.1C20.79 66.36 21.21 67.41 21.84 68.04L22.05 68.25L48.09 42.21V42V41.79L21.84 15.75Z" fill="#4285F4"/>
<path d="M56.7001 51.03L48.0901 42.42V42V41.79L56.7001 33.18L56.9101 33.39L67.2001 39.27C70.1401 40.95 70.1401 43.68 67.2001 45.36L56.7001 51.03Z" fill="#FBBC04"/>
<path d="M56.9101 50.82L48.0901 42L21.8401 68.25C22.8901 69.3 24.3601 69.3 26.2501 68.46L56.9101 50.82Z" fill="#EA4335"/>
<path d="M56.9101 33.18L26.2501 15.75C24.3601 14.7 22.8901 14.91 21.8401 15.96L48.0901 42L56.9101 33.18Z" fill="#34A853"/>
<path opacity="0.2" d="M56.7 50.61L26.25 67.83C24.57 68.88 23.1 68.67 22.05 67.83L21.84 68.04L22.05 68.25C23.1 69.09 24.57 69.3 26.25 68.25L56.7 50.61Z" fill="black"/>
<path opacity="0.12" d="M21.84 67.83C21.21 67.2 21 66.15 21 64.89V65.1C21 66.36 21.42 67.41 22.05 68.04V67.83H21.84Z" fill="black"/>
<path opacity="0.12" d="M67.2001 44.73L56.7001 50.61L56.9101 50.82L67.2001 44.94C68.6701 44.1 69.3001 43.05 69.3001 42C69.3001 43.05 68.4601 43.89 67.2001 44.73Z" fill="black"/>
<path opacity="0.25" d="M26.25 15.96L67.2 39.27C68.46 40.11 69.3 40.95 69.3 42C69.3 40.95 68.67 39.9 67.2 39.06L26.25 15.75C23.31 14.07 21 15.54 21 18.9V19.11C21 15.75 23.31 14.28 26.25 15.96Z" fill="white"/>
</svg>
