<svg xmlns="http://www.w3.org/2000/svg" version="1.1" xmlns:xlink="http://www.w3.org/1999/xlink" xmlns:svgjs="http://svgjs.dev/svgjs" width="2000" height="1252" viewBox="0 0 2000 1252"><g transform="matrix(1,0,0,1,-1.2121212121212466,-2.01935483870966)"><svg viewBox="0 0 396 248" data-background-color="#ffffff" preserveAspectRatio="xMidYMid meet" height="1252" width="2000" xmlns="http://www.w3.org/2000/svg" xmlns:xlink="http://www.w3.org/1999/xlink"><g id="tight-bounds" transform="matrix(1,0,0,1,0.2400000000000091,0.4000000000000057)"><svg viewBox="0 0 395.52 247.2" height="247.2" width="395.52"><g><svg></svg></g><g><svg viewBox="0 0 395.52 247.2" height="247.2" width="395.52"><mask id="f081a329-e405-46a1-a6a2-7d2523916166"><rect width="640" height="400" fill="white"></rect><g transform="matrix(1,0,0,1,39.55199999999999,102.50365410124674)"><svg viewBox="0 0 316.416 42.19269179750651" height="42.19269179750651" width="316.416"><g><svg viewBox="0 0 316.416 42.19269179750651" height="42.19269179750651" width="316.416"><g><svg viewBox="0 0 316.41600000000005 42.19269179750652" height="42.19269179750651" width="316.416"><g><svg viewBox="0 0 316.41600000000005 42.19269179750652" height="42.19269179750652" width="316.41600000000005"><g id="SvgjsG1238"><svg viewBox="0 0 316.41600000000005 42.19269179750652" height="42.19269179750652" width="316.41600000000005" id="SvgjsSvg1237"><g><svg viewBox="0 0 316.41600000000005 42.19269179750652" height="42.19269179750652" width="316.41600000000005"><g transform="matrix(1,0,0,1,0,0)"><svg width="316.41600000000005" viewBox="-7.25 -37.79 313.26 42.64" height="42.19269179750652" data-palette-color="#ffffff"><path d="M-3.25-19.65L-2.86-20.56Q-2.49-20.34-1.98-20.04-1.46-19.75-0.78-19.48-0.1-19.21 0.74-18.98 1.59-18.75 2.59-18.65L2.59-18.65Q2.93-20.85 3.47-22.62 4-24.39 4.65-25.65 5.3-26.9 5.99-27.58 6.69-28.25 7.35-28.25L7.35-28.25Q8.11-28.25 8.42-27.66 8.74-27.08 8.74-26.1L8.74-26.1Q8.74-25.39 8.59-24.54 8.45-23.68 8.2-22.72 7.96-21.75 7.62-20.72 7.28-19.68 6.91-18.65L6.91-18.65Q9.35-18.87 11.41-19.46 13.48-20.04 14.99-20.65L14.99-20.65 15.45-19.75Q13.45-18.99 11.3-18.4 9.16-17.8 6.49-17.65L6.49-17.65Q5.88-16.06 5.24-14.64 4.59-13.21 4.05-12.16L4.05-12.16Q4.08-10.79 4.21-9.19 4.35-7.59 4.75-6.2 5.15-4.81 5.9-3.88 6.64-2.95 7.86-2.95L7.86-2.95Q8.89-2.95 9.74-3.82 10.6-4.69 11.32-6.02 12.04-7.35 12.65-8.94 13.26-10.52 13.79-11.94L13.79-11.94 14.75-11.69Q14.4-10.82 14.01-9.72 13.62-8.62 13.13-7.48 12.65-6.35 12.06-5.29 11.47-4.22 10.77-3.38 10.06-2.54 9.2-2.04 8.35-1.54 7.35-1.54L7.35-1.54Q6.27-1.54 5.33-2.03 4.39-2.51 3.7-3.77 3-5.03 2.6-7.19 2.2-9.35 2.2-12.7L2.2-12.7Q2.2-15.38 2.49-17.7L2.49-17.7Q0.39-17.97-1.04-18.54-2.47-19.12-3.25-19.65L-3.25-19.65ZM7.5-26.95L7.5-26.95Q7.28-26.95 6.84-26.51 6.4-26.07 5.91-25.09 5.42-24.1 4.97-22.5 4.52-20.9 4.25-18.55L4.25-18.55 4.71-18.55 5.91-18.55Q6.35-19.78 6.68-20.92 7.01-22.07 7.25-23.06 7.5-24.05 7.62-24.84 7.74-25.63 7.74-26.15L7.74-26.15Q7.74-26.95 7.5-26.95ZM4.05-14.16L4.05-14.11Q4.47-14.97 4.83-15.83 5.2-16.7 5.54-17.6L5.54-17.6 4.64-17.6 4.15-17.6Q4.1-16.82 4.08-15.95 4.05-15.09 4.05-14.16L4.05-14.16ZM15.21-12.99L15.21-12.99Q14.96-12.13 14.72-11.52 14.48-10.91 14.18-10.39 13.89-9.86 13.54-9.39 13.18-8.91 12.74-8.35L12.74-8.35 12.55-8.54Q13.11-9.99 13.54-11.25 13.96-12.52 14.3-13.79L14.3-13.79Q13.91-14.36 13.63-15.2 13.35-16.04 13.35-17.21L13.35-17.21Q13.35-18.26 13.68-18.96 14.01-19.65 14.55-19.65L14.55-19.65Q14.84-19.65 15.1-19.38 15.35-19.12 15.52-18.68 15.7-18.24 15.79-17.66 15.89-17.09 15.89-16.46L15.89-16.46Q15.89-16.16 15.85-15.82 15.82-15.48 15.77-15.12 15.72-14.77 15.65-14.44 15.57-14.11 15.5-13.89L15.5-13.89Q15.65-13.77 15.98-13.68 16.31-13.6 16.84-13.6L16.84-13.6Q17.77-13.6 18.48-13.87 19.19-14.14 19.6-14.55L19.6-14.55Q19.97-15.14 20.18-15.45 20.38-15.77 20.51-15.93 20.63-16.09 20.69-16.13 20.75-16.16 20.85-16.16L20.85-16.16Q21.12-16.16 21.29-16.02 21.46-15.87 21.46-15.6L21.46-15.6Q21.46-15.53 21.38-15.41 21.31-15.28 21.19-15.09L21.19-15.09Q20.16-13.6 19.58-11.82 18.99-10.03 18.99-7.86L18.99-7.86Q18.99-5.35 19.81-4.22 20.63-3.1 22.14-3.1L22.14-3.1Q22.97-3.1 23.73-3.6 24.48-4.1 25.22-5.16 25.95-6.23 26.69-7.9 27.44-9.57 28.29-11.94L28.29-11.94 29.25-11.69Q28.2-8.59 27.27-6.6 26.34-4.61 25.44-3.45 24.53-2.29 23.58-1.84 22.63-1.39 21.51-1.39L21.51-1.39Q20.8-1.39 20.04-1.71 19.28-2.03 18.66-2.71 18.04-3.39 17.65-4.48 17.26-5.57 17.26-7.1L17.26-7.1Q17.26-7.86 17.39-8.68 17.53-9.5 17.75-10.27 17.97-11.04 18.23-11.76 18.5-12.48 18.8-13.06L18.8-13.06Q17.92-12.65 16.89-12.65L16.89-12.65Q15.89-12.65 15.21-12.99ZM46.14-11.94L47.09-11.69Q46.09-8.98 45.27-7.15 44.45-5.32 43.68-4.2 42.91-3.08 42.16-2.59 41.4-2.1 40.5-2.1L40.5-2.1Q39.4-2.1 38.62-2.87 37.84-3.64 37.64-5.25L37.64-5.25Q36.86-3.56 35.62-2.5 34.37-1.44 32.49-1.44L32.49-1.44Q31.49-1.44 30.57-1.81 29.66-2.17 28.95-2.94 28.24-3.71 27.81-4.88 27.39-6.05 27.39-7.64L27.39-7.64Q27.39-9.25 27.79-10.67 28.19-12.08 28.85-13.27 29.51-14.45 30.38-15.38 31.25-16.31 32.17-16.94 33.1-17.58 34.03-17.92 34.96-18.26 35.74-18.26L35.74-18.26Q36.42-18.26 37.06-18.09 37.69-17.92 38.19-17.54 38.69-17.16 39-16.53 39.3-15.89 39.3-14.94L39.3-14.94Q39.3-13.82 38.87-12.99 38.45-12.16 37.85-11.6 37.25-11.04 36.63-10.69 36.01-10.35 35.64-10.21L35.64-10.21 35.35-11.16Q35.42-11.16 35.9-11.35 36.37-11.55 36.9-12 37.42-12.45 37.86-13.16 38.3-13.87 38.3-14.89L38.3-14.89Q38.3-16.06 37.64-16.69 36.98-17.31 35.96-17.31L35.96-17.31Q35.18-17.31 34.13-16.75 33.08-16.19 32.11-14.99 31.15-13.79 30.48-11.96 29.8-10.13 29.8-7.59L29.8-7.59Q29.8-5.08 30.7-3.76 31.59-2.44 33.1-2.44L33.1-2.44Q33.86-2.44 34.55-2.87 35.25-3.3 35.83-4 36.42-4.71 36.88-5.65 37.35-6.59 37.69-7.59L37.69-7.59Q37.69-8.37 37.87-9.44 38.06-10.5 38.45-11.6L38.45-11.6 39.94-11.11Q39.81-10.79 39.69-10.28 39.57-9.77 39.46-9.16 39.35-8.54 39.28-7.9 39.2-7.25 39.2-6.64L39.2-6.64Q39.2-4.74 39.58-4.02 39.96-3.3 40.89-3.3L40.89-3.3Q41.43-3.3 41.95-3.69 42.48-4.08 43.09-5.05 43.7-6.03 44.43-7.7 45.16-9.38 46.14-11.94L46.14-11.94ZM62.39-11.94L63.35-11.69Q62.59-9.89 61.92-8.59 61.25-7.3 60.59-6.46 59.93-5.62 59.23-5.21 58.54-4.81 57.73-4.81L57.73-4.81Q56.63-4.81 55.86-5.51 55.1-6.2 54.95-7.25L54.95-7.25Q54.26-5.66 53.51-4.41 52.75-3.15 51.99-2.27 51.24-1.39 50.53-0.92 49.82-0.44 49.28-0.44L49.28-0.44Q48.85-0.44 48.2-0.81 47.55-1.17 46.97-2.03 46.38-2.88 45.96-4.28 45.55-5.69 45.55-7.74L45.55-7.74Q45.55-9.08 45.73-10.22 45.92-11.35 46.14-12.18L46.14-12.18Q46.4-13.16 46.75-13.94L46.75-13.94 47.7-13.84Q47.58-12.79 47.54-11.8 47.5-10.82 47.5-9.91L47.5-9.91Q47.5-7.89 47.7-6.3 47.89-4.71 48.17-3.63 48.45-2.54 48.8-1.97 49.14-1.39 49.43-1.39L49.43-1.39Q49.77-1.39 50.38-1.94 50.99-2.49 51.73-3.47 52.46-4.44 53.22-5.76 53.97-7.08 54.58-8.59L54.58-8.59Q54.51-9.06 54.42-9.73 54.34-10.4 54.34-10.89L54.34-10.89Q54.34-12.5 54.62-13.48 54.9-14.45 55.28-14.97 55.66-15.48 56.05-15.64 56.44-15.8 56.63-15.8L56.63-15.8Q57.29-15.8 57.29-14.79L57.29-14.79Q57.29-14.28 57.16-13.55 57.02-12.82 56.82-12.01 56.61-11.21 56.34-10.4 56.07-9.59 55.78-8.91L55.78-8.91Q55.78-8.06 55.96-7.48 56.14-6.91 56.45-6.56 56.76-6.2 57.15-6.05 57.54-5.91 57.95-5.91L57.95-5.91Q59-5.91 60.08-7.39 61.15-8.86 62.39-11.94L62.39-11.94ZM67.74-0.34L67.74-0.34Q66.49-0.34 65.35-0.78 64.2-1.22 63.33-2.11 62.47-3 61.95-4.35 61.44-5.69 61.44-7.5L61.44-7.5Q61.44-9.69 62.07-11.41 62.71-13.13 63.7-14.32 64.69-15.5 65.91-16.13 67.13-16.75 68.3-16.75L68.3-16.75Q69.81-16.75 70.71-15.75 71.6-14.75 71.6-13.16L71.6-13.16Q71.6-11.79 71.08-10.68 70.57-9.57 69.73-8.78 68.89-7.98 67.8-7.54 66.71-7.1 65.54-7.1L65.54-7.1Q64.98-7.1 64.48-7.17 63.98-7.23 63.59-7.3L63.59-7.3Q63.74-5.79 64.17-4.69 64.61-3.59 65.27-2.88 65.93-2.17 66.75-1.83 67.57-1.49 68.45-1.49L68.45-1.49Q69.55-1.49 70.47-2.03 71.4-2.56 72.18-3.43 72.96-4.3 73.61-5.42 74.26-6.54 74.77-7.7 75.28-8.86 75.69-9.97 76.09-11.08 76.41-11.94L76.41-11.94 77.36-11.69Q77.04-10.89 76.61-9.74 76.19-8.59 75.62-7.34 75.06-6.08 74.31-4.82 73.55-3.56 72.6-2.58 71.65-1.59 70.44-0.96 69.23-0.34 67.74-0.34ZM68.35-15.8L68.35-15.8Q67.45-15.8 66.58-15.22 65.71-14.65 65.03-13.65 64.35-12.65 63.92-11.28 63.49-9.91 63.49-8.35L63.49-8.35Q63.81-8.23 64.38-8.14 64.96-8.06 65.79-8.06L65.79-8.06Q66.66-8.06 67.53-8.44 68.4-8.81 69.09-9.48 69.79-10.16 70.22-11.08 70.64-12.01 70.64-13.11L70.64-13.11Q70.64-13.65 70.5-14.14 70.35-14.62 70.06-14.99 69.77-15.36 69.34-15.58 68.91-15.8 68.35-15.8ZM84.83-30.76L84.83-30.76Q84.83-29.22 84.47-27.49 84.12-25.76 83.54-23.97 82.97-22.19 82.23-20.39 81.48-18.58 80.72-16.92 79.97-15.26 79.24-13.77 78.5-12.28 77.94-11.11L77.94-11.11Q78.04-9.11 78.28-7.5 78.53-5.88 78.89-4.75 79.26-3.61 79.77-3 80.29-2.39 80.94-2.39L80.94-2.39Q81.68-2.39 82.4-3.08 83.12-3.76 83.85-5 84.58-6.25 85.34-8.01 86.1-9.77 86.88-11.94L86.88-11.94 87.83-11.69Q87.24-10.01 86.51-8.14 85.78-6.27 84.88-4.71 83.97-3.15 82.91-2.12 81.85-1.1 80.63-1.1L80.63-1.1Q79.41-1.1 78.58-1.86 77.75-2.61 77.21-3.85 76.67-5.08 76.38-6.65 76.09-8.23 75.94-9.86 75.79-11.5 75.77-13.05 75.74-14.6 75.74-15.8L75.74-15.8Q75.74-18.02 75.93-20.21 76.11-22.41 76.49-24.41 76.87-26.42 77.4-28.14 77.94-29.86 78.66-31.12 79.38-32.37 80.25-33.08 81.12-33.79 82.14-33.79L82.14-33.79Q82.87-33.79 83.39-33.54 83.9-33.3 84.22-32.89 84.53-32.47 84.68-31.92 84.83-31.37 84.83-30.76ZM77.8-16.7L77.8-16.7Q77.8-15.77 77.8-14.88 77.8-13.99 77.84-13.16L77.84-13.16Q78.45-14.38 79.14-15.83 79.82-17.29 80.49-18.84 81.16-20.39 81.77-21.97 82.38-23.56 82.85-25.09 83.31-26.61 83.59-27.99 83.87-29.37 83.87-30.49L83.87-30.49Q83.87-30.86 83.81-31.27 83.75-31.69 83.59-32.04 83.43-32.4 83.14-32.63 82.85-32.86 82.38-32.86L82.38-32.86Q81.46-32.86 80.61-31.65 79.77-30.44 79.15-28.3 78.53-26.15 78.16-23.18 77.8-20.21 77.8-16.7ZM115.73-11.94L116.68-11.69Q115.68-8.98 114.86-7.15 114.05-5.32 113.28-4.2 112.51-3.08 111.75-2.59 110.99-2.1 110.09-2.1L110.09-2.1Q108.99-2.1 108.21-2.87 107.43-3.64 107.23-5.25L107.23-5.25Q106.45-3.56 105.21-2.5 103.96-1.44 102.08-1.44L102.08-1.44Q101.08-1.44 100.17-1.81 99.25-2.17 98.54-2.94 97.83-3.71 97.41-4.88 96.98-6.05 96.98-7.64L96.98-7.64Q96.98-9.25 97.38-10.67 97.79-12.08 98.44-13.27 99.1-14.45 99.97-15.38 100.84-16.31 101.76-16.94 102.69-17.58 103.62-17.92 104.55-18.26 105.33-18.26L105.33-18.26Q106.01-18.26 106.65-18.09 107.28-17.92 107.78-17.54 108.28-17.16 108.59-16.53 108.89-15.89 108.89-14.94L108.89-14.94Q108.89-13.82 108.47-12.99 108.04-12.16 107.44-11.6 106.84-11.04 106.22-10.69 105.6-10.35 105.23-10.21L105.23-10.21 104.94-11.16Q105.01-11.16 105.49-11.35 105.96-11.55 106.49-12 107.01-12.45 107.45-13.16 107.89-13.87 107.89-14.89L107.89-14.89Q107.89-16.06 107.23-16.69 106.57-17.31 105.55-17.31L105.55-17.31Q104.77-17.31 103.72-16.75 102.67-16.19 101.7-14.99 100.74-13.79 100.07-11.96 99.4-10.13 99.4-7.59L99.4-7.59Q99.4-5.08 100.29-3.76 101.18-2.44 102.69-2.44L102.69-2.44Q103.45-2.44 104.15-2.87 104.84-3.3 105.43-4 106.01-4.71 106.48-5.65 106.94-6.59 107.28-7.59L107.28-7.59Q107.28-8.37 107.47-9.44 107.65-10.5 108.04-11.6L108.04-11.6 109.53-11.11Q109.41-10.79 109.28-10.28 109.16-9.77 109.05-9.16 108.94-8.54 108.87-7.9 108.8-7.25 108.8-6.64L108.8-6.64Q108.8-4.74 109.17-4.02 109.55-3.3 110.48-3.3L110.48-3.3Q111.02-3.3 111.54-3.69 112.07-4.08 112.68-5.05 113.29-6.03 114.02-7.7 114.75-9.38 115.73-11.94L115.73-11.94ZM122.34-7.91L122.34-7.91Q122.34-8.84 122.45-9.67 122.56-10.5 122.71-11.16 122.86-11.82 122.99-12.26 123.12-12.7 123.17-12.89L123.17-12.89 124.17-12.89Q123.98-10.3 124.14-8.26 124.3-6.23 124.77-4.8 125.25-3.37 126.02-2.61 126.79-1.86 127.84-1.86L127.84-1.86Q128.89-1.86 129.64-2.62 130.4-3.39 130.89-4.59L130.89-4.59Q129.79-5.59 129.24-7.25 128.69-8.91 128.69-10.79L128.69-10.79Q128.69-12.28 128.94-13.21 129.18-14.14 129.53-14.67 129.89-15.21 130.29-15.41 130.69-15.6 130.99-15.6L130.99-15.6Q131.91-15.6 132.45-14.31 132.99-13.01 132.99-10.64L132.99-10.64Q132.99-9.2 132.79-7.76 132.6-6.32 132.13-5.05L132.13-5.05Q132.48-4.79 132.91-4.64 133.35-4.49 133.89-4.49L133.89-4.49Q134.94-4.49 135.72-5.26 136.5-6.03 137.13-7.15 137.75-8.28 138.22-9.57 138.7-10.86 139.14-11.94L139.14-11.94 140.09-11.69Q139.8-10.94 139.47-10.03 139.14-9.13 138.74-8.22 138.33-7.3 137.86-6.45 137.38-5.59 136.78-4.93 136.19-4.27 135.45-3.88 134.72-3.49 133.84-3.49L133.84-3.49Q133.23-3.49 132.71-3.64 132.18-3.78 131.74-4L131.74-4Q131.06-2.61 130-1.73 128.94-0.85 127.42-0.85L127.42-0.85Q125.74-0.85 124.66-1.7 123.59-2.54 123.03-3.91L123.03-3.91Q122.64-3.05 122.16-2.49 121.68-1.93 121.17-1.61 120.66-1.29 120.12-1.17 119.58-1.05 119.07-1.05L119.07-1.05Q118.51-1.05 117.78-1.37 117.05-1.68 116.39-2.45 115.73-3.22 115.28-4.5 114.82-5.79 114.82-7.74L114.82-7.74Q114.82-8.74 115.02-9.74 115.21-10.74 115.56-11.67 115.9-12.6 116.4-13.42 116.9-14.23 117.53-14.84L117.53-14.84 118.39-14.31Q118.39-14.28 118.13-13.78 117.88-13.28 117.56-12.37 117.24-11.45 116.98-10.14 116.73-8.84 116.73-7.2L116.73-7.2Q116.73-6.2 116.87-5.27 117.02-4.35 117.33-3.63 117.63-2.91 118.11-2.48 118.58-2.05 119.24-2.05L119.24-2.05Q120.17-2.05 121.05-2.83 121.93-3.61 122.54-5.49L122.54-5.49Q122.42-6.05 122.38-6.67 122.34-7.28 122.34-7.91ZM130.38-11.55L130.38-11.55Q130.38-10.96 130.4-10.24 130.42-9.52 130.53-8.78 130.64-8.03 130.84-7.31 131.03-6.59 131.38-6.01L131.38-6.01Q131.69-7.13 131.84-8.34 131.99-9.55 131.99-10.6L131.99-10.6Q131.99-10.94 131.99-11.27 131.99-11.6 131.94-11.94L131.94-11.94Q131.79-13.43 131.49-14.01 131.18-14.6 131.03-14.6L131.03-14.6Q130.91-14.6 130.64-13.89 130.38-13.18 130.38-11.55ZM156.96-11.94L157.91-11.69Q156.91-8.98 156.09-7.15 155.28-5.32 154.51-4.2 153.74-3.08 152.98-2.59 152.22-2.1 151.32-2.1L151.32-2.1Q150.22-2.1 149.44-2.87 148.66-3.64 148.46-5.25L148.46-5.25Q147.68-3.56 146.44-2.5 145.19-1.44 143.31-1.44L143.31-1.44Q142.31-1.44 141.4-1.81 140.48-2.17 139.77-2.94 139.06-3.71 138.64-4.88 138.21-6.05 138.21-7.64L138.21-7.64Q138.21-9.25 138.61-10.67 139.02-12.08 139.67-13.27 140.33-14.45 141.2-15.38 142.07-16.31 143-16.94 143.92-17.58 144.85-17.92 145.78-18.26 146.56-18.26L146.56-18.26Q147.24-18.26 147.88-18.09 148.51-17.92 149.01-17.54 149.51-17.16 149.82-16.53 150.12-15.89 150.12-14.94L150.12-14.94Q150.12-13.82 149.7-12.99 149.27-12.16 148.67-11.6 148.07-11.04 147.45-10.69 146.83-10.35 146.46-10.21L146.46-10.21 146.17-11.16Q146.24-11.16 146.72-11.35 147.19-11.55 147.72-12 148.24-12.45 148.68-13.16 149.12-13.87 149.12-14.89L149.12-14.89Q149.12-16.06 148.46-16.69 147.8-17.31 146.78-17.31L146.78-17.31Q146-17.31 144.95-16.75 143.9-16.19 142.93-14.99 141.97-13.79 141.3-11.96 140.63-10.13 140.63-7.59L140.63-7.59Q140.63-5.08 141.52-3.76 142.41-2.44 143.92-2.44L143.92-2.44Q144.68-2.44 145.38-2.87 146.07-3.3 146.66-4 147.24-4.71 147.71-5.65 148.17-6.59 148.51-7.59L148.51-7.59Q148.51-8.37 148.7-9.44 148.88-10.5 149.27-11.6L149.27-11.6 150.76-11.11Q150.64-10.79 150.51-10.28 150.39-9.77 150.28-9.16 150.17-8.54 150.1-7.9 150.03-7.25 150.03-6.64L150.03-6.64Q150.03-4.74 150.4-4.02 150.78-3.3 151.71-3.3L151.71-3.3Q152.25-3.3 152.77-3.69 153.3-4.08 153.91-5.05 154.52-6.03 155.25-7.7 155.98-9.38 156.96-11.94L156.96-11.94ZM158.37-12.99L158.37-12.99Q158.13-12.13 157.89-11.52 157.64-10.91 157.35-10.39 157.06-9.86 156.7-9.39 156.35-8.91 155.91-8.35L155.91-8.35 155.71-8.54Q156.27-9.99 156.7-11.25 157.13-12.52 157.47-13.79L157.47-13.79Q157.08-14.36 156.8-15.2 156.52-16.04 156.52-17.21L156.52-17.21Q156.52-18.26 156.85-18.96 157.18-19.65 157.71-19.65L157.71-19.65Q158.01-19.65 158.26-19.38 158.52-19.12 158.69-18.68 158.86-18.24 158.96-17.66 159.06-17.09 159.06-16.46L159.06-16.46Q159.06-16.16 159.02-15.82 158.98-15.48 158.93-15.12 158.89-14.77 158.81-14.44 158.74-14.11 158.67-13.89L158.67-13.89Q158.81-13.77 159.14-13.68 159.47-13.6 160.01-13.6L160.01-13.6Q160.94-13.6 161.64-13.87 162.35-14.14 162.77-14.55L162.77-14.55Q163.13-15.14 163.34-15.45 163.55-15.77 163.67-15.93 163.79-16.09 163.85-16.13 163.92-16.16 164.01-16.16L164.01-16.16Q164.28-16.16 164.45-16.02 164.62-15.87 164.62-15.6L164.62-15.6Q164.62-15.53 164.55-15.41 164.48-15.28 164.35-15.09L164.35-15.09Q163.33-13.6 162.74-11.82 162.16-10.03 162.16-7.86L162.16-7.86Q162.16-5.35 162.98-4.22 163.79-3.1 165.31-3.1L165.31-3.1Q166.14-3.1 166.89-3.6 167.65-4.1 168.38-5.16 169.12-6.23 169.86-7.9 170.6-9.57 171.46-11.94L171.46-11.94 172.41-11.69Q171.36-8.59 170.43-6.6 169.51-4.61 168.6-3.45 167.7-2.29 166.75-1.84 165.8-1.39 164.67-1.39L164.67-1.39Q163.96-1.39 163.21-1.71 162.45-2.03 161.83-2.71 161.21-3.39 160.81-4.48 160.42-5.57 160.42-7.1L160.42-7.1Q160.42-7.86 160.56-8.68 160.69-9.5 160.91-10.27 161.13-11.04 161.4-11.76 161.67-12.48 161.96-13.06L161.96-13.06Q161.08-12.65 160.06-12.65L160.06-12.65Q159.06-12.65 158.37-12.99ZM178.71-17.31L178.71-17.31Q179.78-17.31 180.55-17.03 181.32-16.75 181.81-16.46L181.81-16.46Q181.98-19.65 182.37-22.13 182.76-24.61 183.29-26.45 183.81-28.3 184.42-29.55 185.03-30.81 185.67-31.58 186.3-32.35 186.9-32.68 187.5-33.01 188.01-33.01L188.01-33.01Q189.11-33.01 189.68-32.08 190.26-31.15 190.26-29.35L190.26-29.35Q190.26-28.39 190.05-26.92 189.84-25.44 189.44-23.62 189.04-21.8 188.46-19.73 187.89-17.65 187.14-15.55 186.4-13.45 185.52-11.4 184.64-9.35 183.62-7.54L183.62-7.54Q183.71-6.15 183.92-5.3 184.13-4.44 184.45-3.97 184.76-3.49 185.18-3.32 185.59-3.15 186.11-3.15L186.11-3.15Q186.81-3.15 187.47-3.63 188.13-4.1 188.82-5.15 189.5-6.2 190.23-7.87 190.96-9.55 191.82-11.94L191.82-11.94 192.77-11.69Q192.06-9.81 191.35-8.04 190.65-6.27 189.83-4.9 189.01-3.52 188.03-2.69 187.06-1.86 185.81-1.86L185.81-1.86Q184.27-1.86 183.42-2.77 182.57-3.69 182.15-5.3L182.15-5.3Q180.73-3.22 179.11-1.99 177.49-0.76 175.7-0.76L175.7-0.76Q174.7-0.76 173.78-1.14 172.85-1.51 172.14-2.31 171.43-3.1 170.99-4.33 170.55-5.57 170.55-7.3L170.55-7.3Q170.55-9.11 171.13-10.89 171.7-12.67 172.76-14.1 173.83-15.53 175.33-16.42 176.83-17.31 178.71-17.31ZM176.56-2.15L176.56-2.15Q177.93-2.15 179.31-3.36 180.69-4.57 181.95-6.54L181.95-6.54Q181.81-7.69 181.76-8.98 181.71-10.28 181.71-11.74L181.71-11.74Q181.71-12.67 181.71-13.59 181.71-14.5 181.76-15.36L181.76-15.36Q181.64-15.45 181.41-15.63 181.17-15.8 180.82-15.97 180.47-16.14 180.01-16.25 179.56-16.36 179-16.36L179-16.36Q178.17-16.36 177.12-15.89 176.07-15.43 175.13-14.39 174.19-13.35 173.56-11.69 172.92-10.03 172.92-7.64L172.92-7.64Q172.92-6.49 173.18-5.49 173.43-4.49 173.91-3.75 174.39-3 175.06-2.58 175.73-2.15 176.56-2.15ZM189.3-29.35L189.3-29.35Q189.3-29.71 189.27-30.18 189.23-30.64 189.11-31.04 188.99-31.45 188.75-31.73 188.52-32.01 188.11-32.01L188.11-32.01Q187.11-32.01 186.26-30.35 185.42-28.69 184.81-25.77 184.2-22.85 183.86-18.92 183.52-14.99 183.52-10.45L183.52-10.45 183.52-9.35Q184.35-10.99 185.1-12.84 185.86-14.7 186.51-16.58 187.16-18.46 187.67-20.31 188.18-22.17 188.55-23.84 188.91-25.51 189.11-26.93 189.3-28.34 189.3-29.35ZM206.34-0.1L206.34-0.1Q204.41-0.1 203.21-0.78 202.02-1.46 202.02-2.59L202.02-2.59Q202.02-3.76 203.18-4.41 204.34-5.05 206.22-5.05L206.22-5.05Q207.88-5.05 209.53-4.46 211.17-3.86 212.78-3.15L212.78-3.15Q214.86-4.52 216.62-6.59 218.38-8.67 219.66-11.1 220.94-13.53 221.66-16.15 222.38-18.77 222.38-21.24L222.38-21.24Q222.38-23.14 221.98-24.6 221.57-26.05 220.88-27.1 220.18-28.15 219.25-28.85 218.33-29.54 217.3-29.94 216.28-30.35 215.2-30.52 214.13-30.69 213.13-30.69L213.13-30.69Q211.15-30.69 209.42-30.02 207.68-29.35 206.41-28.17 205.14-27 204.41-25.43 203.68-23.85 203.68-22.05L203.68-22.05Q203.68-21 203.97-19.86 204.26-18.73 204.97-17.6L204.97-17.6Q204.78-17.48 204.48-17.29 204.19-17.09 203.92-16.92L203.92-16.92Q203.61-16.7 203.24-16.5L203.24-16.5Q202.68-17.53 202.37-18.69 202.07-19.85 202.07-21.04L202.07-21.04Q202.07-23.17 202.9-25.09 203.73-27 205.2-28.44 206.68-29.88 208.71-30.74 210.73-31.59 213.13-31.59L213.13-31.59Q214.45-31.59 215.84-31.37 217.23-31.15 218.55-30.64 219.86-30.13 221.05-29.31 222.23-28.49 223.12-27.29 224.02-26.1 224.53-24.5 225.04-22.9 225.04-20.85L225.04-20.85Q225.04-18.29 224.19-15.65 223.33-13.01 221.84-10.58 220.35-8.15 218.36-6.07 216.37-3.98 214.08-2.54L214.08-2.54Q215.67-1.83 217.26-1.29 218.86-0.76 220.52-0.76L220.52-0.76Q221.62-0.76 222.72-1.05L222.72-1.05 223.04-0.15Q222.4 0.05 221.77 0.12 221.13 0.2 220.52 0.2L220.52 0.2Q219.57 0.2 218.63 0.01 217.69-0.17 216.76-0.49 215.84-0.81 214.91-1.2 213.98-1.59 213.08-2L213.08-2Q211.47-1.1 209.75-0.6 208.02-0.1 206.34-0.1ZM206.39-1.05L206.39-1.05Q207.8-1.05 209.17-1.44 210.54-1.83 211.83-2.54L211.83-2.54Q210.39-3.17 208.99-3.64 207.58-4.1 206.22-4.1L206.22-4.1Q205.29-4.1 204.63-3.69 203.97-3.27 203.97-2.59L203.97-2.59Q203.97-2.03 204.57-1.54 205.17-1.05 206.39-1.05ZM241.62-31.74L241.62-31.74Q242.67-31.74 243.28-31.54 243.89-31.35 243.96-31.35L243.96-31.35 243.57-30.49Q243.5-30.49 242.98-30.68 242.47-30.86 241.62-30.86L241.62-30.86Q239.03-30.86 236.99-29.59 234.95-28.32 233.55-26.15 232.14-23.97 231.4-21.04 230.65-18.12 230.65-14.79L230.65-14.79Q230.65-11.43 231.4-8.75 232.14-6.08 233.5-4.22 234.85-2.37 236.77-1.38 238.69-0.39 241.05-0.39L241.05-0.39Q243.2-0.39 245.11-1.61 247.01-2.83 248.41-5 249.82-7.18 250.64-10.17 251.45-13.16 251.45-16.7L251.45-16.7Q251.45-19.8 250.81-22.03 250.16-24.27 249.13-25.71 248.11-27.15 246.84-27.84 245.57-28.54 244.33-28.54L244.33-28.54Q242.54-28.54 241.25-27.38 239.96-26.22 239.32-23.95L239.32-23.95 238.37-24.19Q239.13-26.76 240.66-28.1 242.2-29.44 244.28-29.44L244.28-29.44Q245.67-29.44 247.12-28.72 248.57-28 249.75-26.45 250.92-24.9 251.66-22.49 252.41-20.07 252.41-16.7L252.41-16.7Q252.41-14.62 252.09-12.51 251.77-10.4 251.12-8.46 250.48-6.52 249.46-4.81 248.45-3.1 247.05-1.84 245.64-0.59 243.86 0.13 242.08 0.85 239.86 0.85L239.86 0.85Q237.59 0.85 235.4-0.07 233.22-1 231.52-2.83 229.82-4.66 228.77-7.39 227.72-10.11 227.72-13.7L227.72-13.7Q227.72-15.92 228.15-18.12 228.58-20.31 229.41-22.31 230.24-24.32 231.45-26.04 232.66-27.76 234.19-29.03 235.73-30.3 237.6-31.02 239.47-31.74 241.62-31.74ZM259.02-0.1L259.02-0.1Q257.09-0.1 255.9-0.78 254.7-1.46 254.7-2.59L254.7-2.59Q254.7-3.76 255.86-4.41 257.02-5.05 258.9-5.05L258.9-5.05Q260.56-5.05 262.21-4.46 263.85-3.86 265.47-3.15L265.47-3.15Q267.54-4.52 269.3-6.59 271.06-8.67 272.34-11.1 273.62-13.53 274.34-16.15 275.06-18.77 275.06-21.24L275.06-21.24Q275.06-23.14 274.66-24.6 274.25-26.05 273.56-27.1 272.86-28.15 271.94-28.85 271.01-29.54 269.98-29.94 268.96-30.35 267.88-30.52 266.81-30.69 265.81-30.69L265.81-30.69Q263.83-30.69 262.1-30.02 260.36-29.35 259.09-28.17 257.82-27 257.09-25.43 256.36-23.85 256.36-22.05L256.36-22.05Q256.36-21 256.65-19.86 256.94-18.73 257.65-17.6L257.65-17.6Q257.46-17.48 257.16-17.29 256.87-17.09 256.6-16.92L256.6-16.92Q256.29-16.7 255.92-16.5L255.92-16.5Q255.36-17.53 255.05-18.69 254.75-19.85 254.75-21.04L254.75-21.04Q254.75-23.17 255.58-25.09 256.41-27 257.88-28.44 259.36-29.88 261.39-30.74 263.41-31.59 265.81-31.59L265.81-31.59Q267.13-31.59 268.52-31.37 269.91-31.15 271.23-30.64 272.55-30.13 273.73-29.31 274.91-28.49 275.8-27.29 276.7-26.1 277.21-24.5 277.72-22.9 277.72-20.85L277.72-20.85Q277.72-18.29 276.87-15.65 276.01-13.01 274.52-10.58 273.03-8.15 271.04-6.07 269.05-3.98 266.76-2.54L266.76-2.54Q268.35-1.83 269.95-1.29 271.54-0.76 273.2-0.76L273.2-0.76Q274.3-0.76 275.4-1.05L275.4-1.05 275.72-0.15Q275.08 0.05 274.45 0.12 273.82 0.2 273.2 0.2L273.2 0.2Q272.25 0.2 271.31 0.01 270.37-0.17 269.44-0.49 268.52-0.81 267.59-1.2 266.66-1.59 265.76-2L265.76-2Q264.15-1.1 262.43-0.6 260.7-0.1 259.02-0.1ZM259.07-1.05L259.07-1.05Q260.48-1.05 261.85-1.44 263.22-1.83 264.51-2.54L264.51-2.54Q263.07-3.17 261.67-3.64 260.27-4.1 258.9-4.1L258.9-4.1Q257.97-4.1 257.31-3.69 256.65-3.27 256.65-2.59L256.65-2.59Q256.65-2.03 257.25-1.54 257.85-1.05 259.07-1.05ZM279.45-7.64L279.45-7.64 280.4-7.69Q280.5-6.35 281.15-5.03 281.8-3.71 282.94-2.67 284.09-1.64 285.75-0.99 287.41-0.34 289.51-0.34L289.51-0.34Q290.46-0.34 291.56-0.49 292.66-0.63 293.76-1.01 294.86-1.39 295.87-2.03 296.88-2.66 297.68-3.64 298.47-4.61 298.93-5.94 299.4-7.28 299.4-9.06L299.4-9.06Q299.4-11.04 298.7-12.63 298.01-14.23 296.73-15.36 295.44-16.48 293.61-17.09 291.78-17.7 289.51-17.7L289.51-17.7Q287.95-17.7 286.31-17.41L286.31-17.41 285.95-18.19Q287.29-19.21 288.71-20.51 290.12-21.8 291.51-23.3 292.9-24.8 294.19-26.51 295.47-28.22 296.54-30.1L296.54-30.1Q295.54-29.83 294.15-29.58 292.76-29.32 291.07-29.11 289.39-28.91 287.51-28.78 285.63-28.66 283.65-28.66L283.65-28.66 283.26-31.15Q283.29-31.13 283.8-31.08 284.31-31.03 285.19-30.98 286.07-30.93 287.24-30.9 288.41-30.86 289.75-30.86L289.75-30.86Q290.85-30.86 292.03-30.9 293.2-30.93 294.34-31.04 295.49-31.15 296.58-31.31 297.67-31.47 298.59-31.74L298.59-31.74 299.15-31.1Q298.1-29.15 296.59-27.26 295.08-25.37 293.48-23.72 291.88-22.07 290.39-20.75 288.9-19.43 287.9-18.6L287.9-18.6Q288.53-18.82 289.38-18.93 290.22-19.04 291.2-19.04L291.2-19.04Q292.37-19.04 293.62-18.86 294.88-18.68 296.08-18.24 297.27-17.8 298.35-17.09 299.42-16.38 300.24-15.36 301.06-14.33 301.53-12.94 302.01-11.55 302.01-9.74L302.01-9.74Q302.01-7.3 301.12-5.35 300.23-3.39 298.65-2.01 297.08-0.63 294.92 0.11 292.76 0.85 290.24 0.85L290.24 0.85Q288.27 0.85 286.39 0.32 284.51-0.22 283.02-1.29 281.53-2.37 280.56-3.96 279.6-5.54 279.45-7.64Z" opacity="1" transform="matrix(1,0,0,1,0,0)" fill="black" class="wordmark-text-0" id="SvgjsPath1236" stroke-width="7" stroke="black" stroke-linejoin="round"></path></svg></g></svg></g></svg></g></svg></g><g></g></svg></g></svg></g></svg></g></mask><g transform="matrix(1,0,0,1,39.55199999999999,102.50365410124674)"><svg viewBox="0 0 316.416 42.19269179750651" height="42.19269179750651" width="316.416"><g><svg viewBox="0 0 316.416 42.19269179750651" height="42.19269179750651" width="316.416"><g><svg viewBox="0 0 316.41600000000005 42.19269179750652" height="42.19269179750651" width="316.416"><g><svg viewBox="0 0 316.41600000000005 42.19269179750652" height="42.19269179750652" width="316.41600000000005"><g id="textblocktransform"><svg viewBox="0 0 316.41600000000005 42.19269179750652" height="42.19269179750652" width="316.41600000000005" id="textblock"><g><svg viewBox="0 0 316.41600000000005 42.19269179750652" height="42.19269179750652" width="316.41600000000005"><g transform="matrix(1,0,0,1,0,0)"><svg width="316.41600000000005" viewBox="-7.25 -37.79 313.26 42.64" height="42.19269179750652" data-palette-color="#ffffff"><path d="M-3.25-19.65L-2.86-20.56Q-2.49-20.34-1.98-20.04-1.46-19.75-0.78-19.48-0.1-19.21 0.74-18.98 1.59-18.75 2.59-18.65L2.59-18.65Q2.93-20.85 3.47-22.62 4-24.39 4.65-25.65 5.3-26.9 5.99-27.58 6.69-28.25 7.35-28.25L7.35-28.25Q8.11-28.25 8.42-27.66 8.74-27.08 8.74-26.1L8.74-26.1Q8.74-25.39 8.59-24.54 8.45-23.68 8.2-22.72 7.96-21.75 7.62-20.72 7.28-19.68 6.91-18.65L6.91-18.65Q9.35-18.87 11.41-19.46 13.48-20.04 14.99-20.65L14.99-20.65 15.45-19.75Q13.45-18.99 11.3-18.4 9.16-17.8 6.49-17.65L6.49-17.65Q5.88-16.06 5.24-14.64 4.59-13.21 4.05-12.16L4.05-12.16Q4.08-10.79 4.21-9.19 4.35-7.59 4.75-6.2 5.15-4.81 5.9-3.88 6.64-2.95 7.86-2.95L7.86-2.95Q8.89-2.95 9.74-3.82 10.6-4.69 11.32-6.02 12.04-7.35 12.65-8.94 13.26-10.52 13.79-11.94L13.79-11.94 14.75-11.69Q14.4-10.82 14.01-9.72 13.62-8.62 13.13-7.48 12.65-6.35 12.06-5.29 11.47-4.22 10.77-3.38 10.06-2.54 9.2-2.04 8.35-1.54 7.35-1.54L7.35-1.54Q6.27-1.54 5.33-2.03 4.39-2.51 3.7-3.77 3-5.03 2.6-7.19 2.2-9.35 2.2-12.7L2.2-12.7Q2.2-15.38 2.49-17.7L2.49-17.7Q0.39-17.97-1.04-18.54-2.47-19.12-3.25-19.65L-3.25-19.65ZM7.5-26.95L7.5-26.95Q7.28-26.95 6.84-26.51 6.4-26.07 5.91-25.09 5.42-24.1 4.97-22.5 4.52-20.9 4.25-18.55L4.25-18.55 4.71-18.55 5.91-18.55Q6.35-19.78 6.68-20.92 7.01-22.07 7.25-23.06 7.5-24.05 7.62-24.84 7.74-25.63 7.74-26.15L7.74-26.15Q7.74-26.95 7.5-26.95ZM4.05-14.16L4.05-14.11Q4.47-14.97 4.83-15.83 5.2-16.7 5.54-17.6L5.54-17.6 4.64-17.6 4.15-17.6Q4.1-16.82 4.08-15.95 4.05-15.09 4.05-14.16L4.05-14.16ZM15.21-12.99L15.21-12.99Q14.96-12.13 14.72-11.52 14.48-10.91 14.18-10.39 13.89-9.86 13.54-9.39 13.18-8.91 12.74-8.35L12.74-8.35 12.55-8.54Q13.11-9.99 13.54-11.25 13.96-12.52 14.3-13.79L14.3-13.79Q13.91-14.36 13.63-15.2 13.35-16.04 13.35-17.21L13.35-17.21Q13.35-18.26 13.68-18.96 14.01-19.65 14.55-19.65L14.55-19.65Q14.84-19.65 15.1-19.38 15.35-19.12 15.52-18.68 15.7-18.24 15.79-17.66 15.89-17.09 15.89-16.46L15.89-16.46Q15.89-16.16 15.85-15.82 15.82-15.48 15.77-15.12 15.72-14.77 15.65-14.44 15.57-14.11 15.5-13.89L15.5-13.89Q15.65-13.77 15.98-13.68 16.31-13.6 16.84-13.6L16.84-13.6Q17.77-13.6 18.48-13.87 19.19-14.14 19.6-14.55L19.6-14.55Q19.97-15.14 20.18-15.45 20.38-15.77 20.51-15.93 20.63-16.09 20.69-16.13 20.75-16.16 20.85-16.16L20.85-16.16Q21.12-16.16 21.29-16.02 21.46-15.87 21.46-15.6L21.46-15.6Q21.46-15.53 21.38-15.41 21.31-15.28 21.19-15.09L21.19-15.09Q20.16-13.6 19.58-11.82 18.99-10.03 18.99-7.86L18.99-7.86Q18.99-5.35 19.81-4.22 20.63-3.1 22.14-3.1L22.14-3.1Q22.97-3.1 23.73-3.6 24.48-4.1 25.22-5.16 25.95-6.23 26.69-7.9 27.44-9.57 28.29-11.94L28.29-11.94 29.25-11.69Q28.2-8.59 27.27-6.6 26.34-4.61 25.44-3.45 24.53-2.29 23.58-1.84 22.63-1.39 21.51-1.39L21.51-1.39Q20.8-1.39 20.04-1.71 19.28-2.03 18.66-2.71 18.04-3.39 17.65-4.48 17.26-5.57 17.26-7.1L17.26-7.1Q17.26-7.86 17.39-8.68 17.53-9.5 17.75-10.27 17.97-11.04 18.23-11.76 18.5-12.48 18.8-13.06L18.8-13.06Q17.92-12.65 16.89-12.65L16.89-12.65Q15.89-12.65 15.21-12.99ZM46.14-11.94L47.09-11.69Q46.09-8.98 45.27-7.15 44.45-5.32 43.68-4.2 42.91-3.08 42.16-2.59 41.4-2.1 40.5-2.1L40.5-2.1Q39.4-2.1 38.62-2.87 37.84-3.64 37.64-5.25L37.64-5.25Q36.86-3.56 35.62-2.5 34.37-1.44 32.49-1.44L32.49-1.44Q31.49-1.44 30.57-1.81 29.66-2.17 28.95-2.94 28.24-3.71 27.81-4.88 27.39-6.05 27.39-7.64L27.39-7.64Q27.39-9.25 27.79-10.67 28.19-12.08 28.85-13.27 29.51-14.45 30.38-15.38 31.25-16.31 32.17-16.94 33.1-17.58 34.03-17.92 34.96-18.26 35.74-18.26L35.74-18.26Q36.42-18.26 37.06-18.09 37.69-17.92 38.19-17.54 38.69-17.16 39-16.53 39.3-15.89 39.3-14.94L39.3-14.94Q39.3-13.82 38.87-12.99 38.45-12.16 37.85-11.6 37.25-11.04 36.63-10.69 36.01-10.35 35.64-10.21L35.64-10.21 35.35-11.16Q35.42-11.16 35.9-11.35 36.37-11.55 36.9-12 37.42-12.45 37.86-13.16 38.3-13.87 38.3-14.89L38.3-14.89Q38.3-16.06 37.64-16.69 36.98-17.31 35.96-17.31L35.96-17.31Q35.18-17.31 34.13-16.75 33.08-16.19 32.11-14.99 31.15-13.79 30.48-11.96 29.8-10.13 29.8-7.59L29.8-7.59Q29.8-5.08 30.7-3.76 31.59-2.44 33.1-2.44L33.1-2.44Q33.86-2.44 34.55-2.87 35.25-3.3 35.83-4 36.42-4.71 36.88-5.65 37.35-6.59 37.69-7.59L37.69-7.59Q37.69-8.37 37.87-9.44 38.06-10.5 38.45-11.6L38.45-11.6 39.94-11.11Q39.81-10.79 39.69-10.28 39.57-9.77 39.46-9.16 39.35-8.54 39.28-7.9 39.2-7.25 39.2-6.64L39.2-6.64Q39.2-4.74 39.58-4.02 39.96-3.3 40.89-3.3L40.89-3.3Q41.43-3.3 41.95-3.69 42.48-4.08 43.09-5.05 43.7-6.03 44.43-7.7 45.16-9.38 46.14-11.94L46.14-11.94ZM62.39-11.94L63.35-11.69Q62.59-9.89 61.92-8.59 61.25-7.3 60.59-6.46 59.93-5.62 59.23-5.21 58.54-4.81 57.73-4.81L57.73-4.81Q56.63-4.81 55.86-5.51 55.1-6.2 54.95-7.25L54.95-7.25Q54.26-5.66 53.51-4.41 52.75-3.15 51.99-2.27 51.24-1.39 50.53-0.92 49.82-0.44 49.28-0.44L49.28-0.44Q48.85-0.44 48.2-0.81 47.55-1.17 46.97-2.03 46.38-2.88 45.96-4.28 45.55-5.69 45.55-7.74L45.55-7.74Q45.55-9.08 45.73-10.22 45.92-11.35 46.14-12.18L46.14-12.18Q46.4-13.16 46.75-13.94L46.75-13.94 47.7-13.84Q47.58-12.79 47.54-11.8 47.5-10.82 47.5-9.91L47.5-9.91Q47.5-7.89 47.7-6.3 47.89-4.71 48.17-3.63 48.45-2.54 48.8-1.97 49.14-1.39 49.43-1.39L49.43-1.39Q49.77-1.39 50.38-1.94 50.99-2.49 51.73-3.47 52.46-4.44 53.22-5.76 53.97-7.08 54.58-8.59L54.58-8.59Q54.51-9.06 54.42-9.73 54.34-10.4 54.34-10.89L54.34-10.89Q54.34-12.5 54.62-13.48 54.9-14.45 55.28-14.97 55.66-15.48 56.05-15.64 56.44-15.8 56.63-15.8L56.63-15.8Q57.29-15.8 57.29-14.79L57.29-14.79Q57.29-14.28 57.16-13.55 57.02-12.82 56.82-12.01 56.61-11.21 56.34-10.4 56.07-9.59 55.78-8.91L55.78-8.91Q55.78-8.06 55.96-7.48 56.14-6.91 56.45-6.56 56.76-6.2 57.15-6.05 57.54-5.91 57.95-5.91L57.95-5.91Q59-5.91 60.08-7.39 61.15-8.86 62.39-11.94L62.39-11.94ZM67.74-0.34L67.74-0.34Q66.49-0.34 65.35-0.78 64.2-1.22 63.33-2.11 62.47-3 61.95-4.35 61.44-5.69 61.44-7.5L61.44-7.5Q61.44-9.69 62.07-11.41 62.71-13.13 63.7-14.32 64.69-15.5 65.91-16.13 67.13-16.75 68.3-16.75L68.3-16.75Q69.81-16.75 70.71-15.75 71.6-14.75 71.6-13.16L71.6-13.16Q71.6-11.79 71.08-10.68 70.57-9.57 69.73-8.78 68.89-7.98 67.8-7.54 66.71-7.1 65.54-7.1L65.54-7.1Q64.98-7.1 64.48-7.17 63.98-7.23 63.59-7.3L63.59-7.3Q63.74-5.79 64.17-4.69 64.61-3.59 65.27-2.88 65.93-2.17 66.75-1.83 67.57-1.49 68.45-1.49L68.45-1.49Q69.55-1.49 70.47-2.03 71.4-2.56 72.18-3.43 72.96-4.3 73.61-5.42 74.26-6.54 74.77-7.7 75.28-8.86 75.69-9.97 76.09-11.08 76.41-11.94L76.41-11.94 77.36-11.69Q77.04-10.89 76.61-9.74 76.19-8.59 75.62-7.34 75.06-6.08 74.31-4.82 73.55-3.56 72.6-2.58 71.65-1.59 70.44-0.96 69.23-0.34 67.74-0.34ZM68.35-15.8L68.35-15.8Q67.45-15.8 66.58-15.22 65.71-14.65 65.03-13.65 64.35-12.65 63.92-11.28 63.49-9.91 63.49-8.35L63.49-8.35Q63.81-8.23 64.38-8.14 64.96-8.06 65.79-8.06L65.79-8.06Q66.66-8.06 67.53-8.44 68.4-8.81 69.09-9.48 69.79-10.16 70.22-11.08 70.64-12.01 70.64-13.11L70.64-13.11Q70.64-13.65 70.5-14.14 70.35-14.62 70.06-14.99 69.77-15.36 69.34-15.58 68.91-15.8 68.35-15.8ZM84.83-30.76L84.83-30.76Q84.83-29.22 84.47-27.49 84.12-25.76 83.54-23.97 82.97-22.19 82.23-20.39 81.48-18.58 80.72-16.92 79.97-15.26 79.24-13.77 78.5-12.28 77.94-11.11L77.94-11.11Q78.04-9.11 78.28-7.5 78.53-5.88 78.89-4.75 79.26-3.61 79.77-3 80.29-2.39 80.94-2.39L80.94-2.39Q81.68-2.39 82.4-3.08 83.12-3.76 83.85-5 84.58-6.25 85.34-8.01 86.1-9.77 86.88-11.94L86.88-11.94 87.83-11.69Q87.24-10.01 86.51-8.14 85.78-6.27 84.88-4.71 83.97-3.15 82.91-2.12 81.85-1.1 80.63-1.1L80.63-1.1Q79.41-1.1 78.58-1.86 77.75-2.61 77.21-3.85 76.67-5.08 76.38-6.65 76.09-8.23 75.94-9.86 75.79-11.5 75.77-13.05 75.74-14.6 75.74-15.8L75.74-15.8Q75.74-18.02 75.93-20.21 76.11-22.41 76.49-24.41 76.87-26.42 77.4-28.14 77.94-29.86 78.66-31.12 79.38-32.37 80.25-33.08 81.12-33.79 82.14-33.79L82.14-33.79Q82.87-33.79 83.39-33.54 83.9-33.3 84.22-32.89 84.53-32.47 84.68-31.92 84.83-31.37 84.83-30.76ZM77.8-16.7L77.8-16.7Q77.8-15.77 77.8-14.88 77.8-13.99 77.84-13.16L77.84-13.16Q78.45-14.38 79.14-15.83 79.82-17.29 80.49-18.84 81.16-20.39 81.77-21.97 82.38-23.56 82.85-25.09 83.31-26.61 83.59-27.99 83.87-29.37 83.87-30.49L83.87-30.49Q83.87-30.86 83.81-31.27 83.75-31.69 83.59-32.04 83.43-32.4 83.14-32.63 82.85-32.86 82.38-32.86L82.38-32.86Q81.46-32.86 80.61-31.65 79.77-30.44 79.15-28.3 78.53-26.15 78.16-23.18 77.8-20.21 77.8-16.7ZM115.73-11.94L116.68-11.69Q115.68-8.98 114.86-7.15 114.05-5.32 113.28-4.2 112.51-3.08 111.75-2.59 110.99-2.1 110.09-2.1L110.09-2.1Q108.99-2.1 108.21-2.87 107.43-3.64 107.23-5.25L107.23-5.25Q106.45-3.56 105.21-2.5 103.96-1.44 102.08-1.44L102.08-1.44Q101.08-1.44 100.17-1.81 99.25-2.17 98.54-2.94 97.83-3.71 97.41-4.88 96.98-6.05 96.98-7.64L96.98-7.64Q96.98-9.25 97.38-10.67 97.79-12.08 98.44-13.27 99.1-14.45 99.97-15.38 100.84-16.31 101.76-16.94 102.69-17.58 103.62-17.92 104.55-18.26 105.33-18.26L105.33-18.26Q106.01-18.26 106.65-18.09 107.28-17.92 107.78-17.54 108.28-17.16 108.59-16.53 108.89-15.89 108.89-14.94L108.89-14.94Q108.89-13.82 108.47-12.99 108.04-12.16 107.44-11.6 106.84-11.04 106.22-10.69 105.6-10.35 105.23-10.21L105.23-10.21 104.94-11.16Q105.01-11.16 105.49-11.35 105.96-11.55 106.49-12 107.01-12.45 107.45-13.16 107.89-13.87 107.89-14.89L107.89-14.89Q107.89-16.06 107.23-16.69 106.57-17.31 105.55-17.31L105.55-17.31Q104.77-17.31 103.72-16.75 102.67-16.19 101.7-14.99 100.74-13.79 100.07-11.96 99.4-10.13 99.4-7.59L99.4-7.59Q99.4-5.08 100.29-3.76 101.18-2.44 102.69-2.44L102.69-2.44Q103.45-2.44 104.15-2.87 104.84-3.3 105.43-4 106.01-4.71 106.48-5.65 106.94-6.59 107.28-7.59L107.28-7.59Q107.28-8.37 107.47-9.44 107.65-10.5 108.04-11.6L108.04-11.6 109.53-11.11Q109.41-10.79 109.28-10.28 109.16-9.77 109.05-9.16 108.94-8.54 108.87-7.9 108.8-7.25 108.8-6.64L108.8-6.64Q108.8-4.74 109.17-4.02 109.55-3.3 110.48-3.3L110.48-3.3Q111.02-3.3 111.54-3.69 112.07-4.08 112.68-5.05 113.29-6.03 114.02-7.7 114.75-9.38 115.73-11.94L115.73-11.94ZM122.34-7.91L122.34-7.91Q122.34-8.84 122.45-9.67 122.56-10.5 122.71-11.16 122.86-11.82 122.99-12.26 123.12-12.7 123.17-12.89L123.17-12.89 124.17-12.89Q123.98-10.3 124.14-8.26 124.3-6.23 124.77-4.8 125.25-3.37 126.02-2.61 126.79-1.86 127.84-1.86L127.84-1.86Q128.89-1.86 129.64-2.62 130.4-3.39 130.89-4.59L130.89-4.59Q129.79-5.59 129.24-7.25 128.69-8.91 128.69-10.79L128.69-10.79Q128.69-12.28 128.94-13.21 129.18-14.14 129.53-14.67 129.89-15.21 130.29-15.41 130.69-15.6 130.99-15.6L130.99-15.6Q131.91-15.6 132.45-14.31 132.99-13.01 132.99-10.64L132.99-10.64Q132.99-9.2 132.79-7.76 132.6-6.32 132.13-5.05L132.13-5.05Q132.48-4.79 132.91-4.64 133.35-4.49 133.89-4.49L133.89-4.49Q134.94-4.49 135.72-5.26 136.5-6.03 137.13-7.15 137.75-8.28 138.22-9.57 138.7-10.86 139.14-11.94L139.14-11.94 140.09-11.69Q139.8-10.94 139.47-10.03 139.14-9.13 138.74-8.22 138.33-7.3 137.86-6.45 137.38-5.59 136.78-4.93 136.19-4.27 135.45-3.88 134.72-3.49 133.84-3.49L133.84-3.49Q133.23-3.49 132.71-3.64 132.18-3.78 131.74-4L131.74-4Q131.06-2.61 130-1.73 128.94-0.85 127.42-0.85L127.42-0.85Q125.74-0.85 124.66-1.7 123.59-2.54 123.03-3.91L123.03-3.91Q122.64-3.05 122.16-2.49 121.68-1.93 121.17-1.61 120.66-1.29 120.12-1.17 119.58-1.05 119.07-1.05L119.07-1.05Q118.51-1.05 117.78-1.37 117.05-1.68 116.39-2.45 115.73-3.22 115.28-4.5 114.82-5.79 114.82-7.74L114.82-7.74Q114.82-8.74 115.02-9.74 115.21-10.74 115.56-11.67 115.9-12.6 116.4-13.42 116.9-14.23 117.53-14.84L117.53-14.84 118.39-14.31Q118.39-14.28 118.13-13.78 117.88-13.28 117.56-12.37 117.24-11.45 116.98-10.14 116.73-8.84 116.73-7.2L116.73-7.2Q116.73-6.2 116.87-5.27 117.02-4.35 117.33-3.63 117.63-2.91 118.11-2.48 118.58-2.05 119.24-2.05L119.24-2.05Q120.17-2.05 121.05-2.83 121.93-3.61 122.54-5.49L122.54-5.49Q122.42-6.05 122.38-6.67 122.34-7.28 122.34-7.91ZM130.38-11.55L130.38-11.55Q130.38-10.96 130.4-10.24 130.42-9.52 130.53-8.78 130.64-8.03 130.84-7.31 131.03-6.59 131.38-6.01L131.38-6.01Q131.69-7.13 131.84-8.34 131.99-9.55 131.99-10.6L131.99-10.6Q131.99-10.94 131.99-11.27 131.99-11.6 131.94-11.94L131.94-11.94Q131.79-13.43 131.49-14.01 131.18-14.6 131.03-14.6L131.03-14.6Q130.91-14.6 130.64-13.89 130.38-13.18 130.38-11.55ZM156.96-11.94L157.91-11.69Q156.91-8.98 156.09-7.15 155.28-5.32 154.51-4.2 153.74-3.08 152.98-2.59 152.22-2.1 151.32-2.1L151.32-2.1Q150.22-2.1 149.44-2.87 148.66-3.64 148.46-5.25L148.46-5.25Q147.68-3.56 146.44-2.5 145.19-1.44 143.31-1.44L143.31-1.44Q142.31-1.44 141.4-1.81 140.48-2.17 139.77-2.94 139.06-3.71 138.64-4.88 138.21-6.05 138.21-7.64L138.21-7.64Q138.21-9.25 138.61-10.67 139.02-12.08 139.67-13.27 140.33-14.45 141.2-15.38 142.07-16.31 143-16.94 143.92-17.58 144.85-17.92 145.78-18.26 146.56-18.26L146.56-18.26Q147.24-18.26 147.88-18.09 148.51-17.92 149.01-17.54 149.51-17.16 149.82-16.53 150.12-15.89 150.12-14.94L150.12-14.94Q150.12-13.82 149.7-12.99 149.27-12.16 148.67-11.6 148.07-11.04 147.45-10.69 146.83-10.35 146.46-10.21L146.46-10.21 146.17-11.16Q146.24-11.16 146.72-11.35 147.19-11.55 147.72-12 148.24-12.45 148.68-13.16 149.12-13.87 149.12-14.89L149.12-14.89Q149.12-16.06 148.46-16.69 147.8-17.31 146.78-17.31L146.78-17.31Q146-17.31 144.95-16.75 143.9-16.19 142.93-14.99 141.97-13.79 141.3-11.96 140.63-10.13 140.63-7.59L140.63-7.59Q140.63-5.08 141.52-3.76 142.41-2.44 143.92-2.44L143.92-2.44Q144.68-2.44 145.38-2.87 146.07-3.3 146.66-4 147.24-4.71 147.71-5.65 148.17-6.59 148.51-7.59L148.51-7.59Q148.51-8.37 148.7-9.44 148.88-10.5 149.27-11.6L149.27-11.6 150.76-11.11Q150.64-10.79 150.51-10.28 150.39-9.77 150.28-9.16 150.17-8.54 150.1-7.9 150.03-7.25 150.03-6.64L150.03-6.64Q150.03-4.74 150.4-4.02 150.78-3.3 151.71-3.3L151.71-3.3Q152.25-3.3 152.77-3.69 153.3-4.08 153.91-5.05 154.52-6.03 155.25-7.7 155.98-9.38 156.96-11.94L156.96-11.94ZM158.37-12.99L158.37-12.99Q158.13-12.13 157.89-11.52 157.64-10.91 157.35-10.39 157.06-9.86 156.7-9.39 156.35-8.91 155.91-8.35L155.91-8.35 155.71-8.54Q156.27-9.99 156.7-11.25 157.13-12.52 157.47-13.79L157.47-13.79Q157.08-14.36 156.8-15.2 156.52-16.04 156.52-17.21L156.52-17.21Q156.52-18.26 156.85-18.96 157.18-19.65 157.71-19.65L157.71-19.65Q158.01-19.65 158.26-19.38 158.52-19.12 158.69-18.68 158.86-18.24 158.96-17.66 159.06-17.09 159.06-16.46L159.06-16.46Q159.06-16.16 159.02-15.82 158.98-15.48 158.93-15.12 158.89-14.77 158.81-14.44 158.74-14.11 158.67-13.89L158.67-13.89Q158.81-13.77 159.14-13.68 159.47-13.6 160.01-13.6L160.01-13.6Q160.94-13.6 161.64-13.87 162.35-14.14 162.77-14.55L162.77-14.55Q163.13-15.14 163.34-15.45 163.55-15.77 163.67-15.93 163.79-16.09 163.85-16.13 163.92-16.16 164.01-16.16L164.01-16.16Q164.28-16.16 164.45-16.02 164.62-15.87 164.62-15.6L164.62-15.6Q164.62-15.53 164.55-15.41 164.48-15.28 164.35-15.09L164.35-15.09Q163.33-13.6 162.74-11.82 162.16-10.03 162.16-7.86L162.16-7.86Q162.16-5.35 162.98-4.22 163.79-3.1 165.31-3.1L165.31-3.1Q166.14-3.1 166.89-3.6 167.65-4.1 168.38-5.16 169.12-6.23 169.86-7.9 170.6-9.57 171.46-11.94L171.46-11.94 172.41-11.69Q171.36-8.59 170.43-6.6 169.51-4.61 168.6-3.45 167.7-2.29 166.75-1.84 165.8-1.39 164.67-1.39L164.67-1.39Q163.96-1.39 163.21-1.71 162.45-2.03 161.83-2.71 161.21-3.39 160.81-4.48 160.42-5.57 160.42-7.1L160.42-7.1Q160.42-7.86 160.56-8.68 160.69-9.5 160.91-10.27 161.13-11.04 161.4-11.76 161.67-12.48 161.96-13.06L161.96-13.06Q161.08-12.65 160.06-12.65L160.06-12.65Q159.06-12.65 158.37-12.99ZM178.71-17.31L178.71-17.31Q179.78-17.31 180.55-17.03 181.32-16.75 181.81-16.46L181.81-16.46Q181.98-19.65 182.37-22.13 182.76-24.61 183.29-26.45 183.81-28.3 184.42-29.55 185.03-30.81 185.67-31.58 186.3-32.35 186.9-32.68 187.5-33.01 188.01-33.01L188.01-33.01Q189.11-33.01 189.68-32.08 190.26-31.15 190.26-29.35L190.26-29.35Q190.26-28.39 190.05-26.92 189.84-25.44 189.44-23.62 189.04-21.8 188.46-19.73 187.89-17.65 187.14-15.55 186.4-13.45 185.52-11.4 184.64-9.35 183.62-7.54L183.62-7.54Q183.71-6.15 183.92-5.3 184.13-4.44 184.45-3.97 184.76-3.49 185.18-3.32 185.59-3.15 186.11-3.15L186.11-3.15Q186.81-3.15 187.47-3.63 188.13-4.1 188.82-5.15 189.5-6.2 190.23-7.87 190.96-9.55 191.82-11.94L191.82-11.94 192.77-11.69Q192.06-9.81 191.35-8.04 190.65-6.27 189.83-4.9 189.01-3.52 188.03-2.69 187.06-1.86 185.81-1.86L185.81-1.86Q184.27-1.86 183.42-2.77 182.57-3.69 182.15-5.3L182.15-5.3Q180.73-3.22 179.11-1.99 177.49-0.76 175.7-0.76L175.7-0.76Q174.7-0.76 173.78-1.14 172.85-1.51 172.14-2.31 171.43-3.1 170.99-4.33 170.55-5.57 170.55-7.3L170.55-7.3Q170.55-9.11 171.13-10.89 171.7-12.67 172.76-14.1 173.83-15.53 175.33-16.42 176.83-17.31 178.71-17.31ZM176.56-2.15L176.56-2.15Q177.93-2.15 179.31-3.36 180.69-4.57 181.95-6.54L181.95-6.54Q181.81-7.69 181.76-8.98 181.71-10.28 181.71-11.74L181.71-11.74Q181.71-12.67 181.71-13.59 181.71-14.5 181.76-15.36L181.76-15.36Q181.64-15.45 181.41-15.63 181.17-15.8 180.82-15.97 180.47-16.14 180.01-16.25 179.56-16.36 179-16.36L179-16.36Q178.17-16.36 177.12-15.89 176.07-15.43 175.13-14.39 174.19-13.35 173.56-11.69 172.92-10.03 172.92-7.64L172.92-7.64Q172.92-6.49 173.18-5.49 173.43-4.49 173.91-3.75 174.39-3 175.06-2.58 175.73-2.15 176.56-2.15ZM189.3-29.35L189.3-29.35Q189.3-29.71 189.27-30.18 189.23-30.64 189.11-31.04 188.99-31.45 188.75-31.73 188.52-32.01 188.11-32.01L188.11-32.01Q187.11-32.01 186.26-30.35 185.42-28.69 184.81-25.77 184.2-22.85 183.86-18.92 183.52-14.99 183.52-10.45L183.52-10.45 183.52-9.35Q184.35-10.99 185.1-12.84 185.86-14.7 186.51-16.58 187.16-18.46 187.67-20.31 188.18-22.17 188.55-23.84 188.91-25.51 189.11-26.93 189.3-28.34 189.3-29.35ZM206.34-0.1L206.34-0.1Q204.41-0.1 203.21-0.78 202.02-1.46 202.02-2.59L202.02-2.59Q202.02-3.76 203.18-4.41 204.34-5.05 206.22-5.05L206.22-5.05Q207.88-5.05 209.53-4.46 211.17-3.86 212.78-3.15L212.78-3.15Q214.86-4.52 216.62-6.59 218.38-8.67 219.66-11.1 220.94-13.53 221.66-16.15 222.38-18.77 222.38-21.24L222.38-21.24Q222.38-23.14 221.98-24.6 221.57-26.05 220.88-27.1 220.18-28.15 219.25-28.85 218.33-29.54 217.3-29.94 216.28-30.35 215.2-30.52 214.13-30.69 213.13-30.69L213.13-30.69Q211.15-30.69 209.42-30.02 207.68-29.35 206.41-28.17 205.14-27 204.41-25.43 203.68-23.85 203.68-22.05L203.68-22.05Q203.68-21 203.97-19.86 204.26-18.73 204.97-17.6L204.97-17.6Q204.78-17.48 204.48-17.29 204.19-17.09 203.92-16.92L203.92-16.92Q203.61-16.7 203.24-16.5L203.24-16.5Q202.68-17.53 202.37-18.69 202.07-19.85 202.07-21.04L202.07-21.04Q202.07-23.17 202.9-25.09 203.73-27 205.2-28.44 206.68-29.88 208.71-30.74 210.73-31.59 213.13-31.59L213.13-31.59Q214.45-31.59 215.84-31.37 217.23-31.15 218.55-30.64 219.86-30.13 221.05-29.31 222.23-28.49 223.12-27.29 224.02-26.1 224.53-24.5 225.04-22.9 225.04-20.85L225.04-20.85Q225.04-18.29 224.19-15.65 223.33-13.01 221.84-10.58 220.35-8.15 218.36-6.07 216.37-3.98 214.08-2.54L214.08-2.54Q215.67-1.83 217.26-1.29 218.86-0.76 220.52-0.76L220.52-0.76Q221.62-0.76 222.72-1.05L222.72-1.05 223.04-0.15Q222.4 0.05 221.77 0.12 221.13 0.2 220.52 0.2L220.52 0.2Q219.57 0.2 218.63 0.01 217.69-0.17 216.76-0.49 215.84-0.81 214.91-1.2 213.98-1.59 213.08-2L213.08-2Q211.47-1.1 209.75-0.6 208.02-0.1 206.34-0.1ZM206.39-1.05L206.39-1.05Q207.8-1.05 209.17-1.44 210.54-1.83 211.83-2.54L211.83-2.54Q210.39-3.17 208.99-3.64 207.58-4.1 206.22-4.1L206.22-4.1Q205.29-4.1 204.63-3.69 203.97-3.27 203.97-2.59L203.97-2.59Q203.97-2.03 204.57-1.54 205.17-1.05 206.39-1.05ZM241.62-31.74L241.62-31.74Q242.67-31.74 243.28-31.54 243.89-31.35 243.96-31.35L243.96-31.35 243.57-30.49Q243.5-30.49 242.98-30.68 242.47-30.86 241.62-30.86L241.62-30.86Q239.03-30.86 236.99-29.59 234.95-28.32 233.55-26.15 232.14-23.97 231.4-21.04 230.65-18.12 230.65-14.79L230.65-14.79Q230.65-11.43 231.4-8.75 232.14-6.08 233.5-4.22 234.85-2.37 236.77-1.38 238.69-0.39 241.05-0.39L241.05-0.39Q243.2-0.39 245.11-1.61 247.01-2.83 248.41-5 249.82-7.18 250.64-10.17 251.45-13.16 251.45-16.7L251.45-16.7Q251.45-19.8 250.81-22.03 250.16-24.27 249.13-25.71 248.11-27.15 246.84-27.84 245.57-28.54 244.33-28.54L244.33-28.54Q242.54-28.54 241.25-27.38 239.96-26.22 239.32-23.95L239.32-23.95 238.37-24.19Q239.13-26.76 240.66-28.1 242.2-29.44 244.28-29.44L244.28-29.44Q245.67-29.44 247.12-28.72 248.57-28 249.75-26.45 250.92-24.9 251.66-22.49 252.41-20.07 252.41-16.7L252.41-16.7Q252.41-14.62 252.09-12.51 251.77-10.4 251.12-8.46 250.48-6.52 249.46-4.81 248.45-3.1 247.05-1.84 245.64-0.59 243.86 0.13 242.08 0.85 239.86 0.85L239.86 0.85Q237.59 0.85 235.4-0.07 233.22-1 231.52-2.83 229.82-4.66 228.77-7.39 227.72-10.11 227.72-13.7L227.72-13.7Q227.72-15.92 228.15-18.12 228.58-20.31 229.41-22.31 230.24-24.32 231.45-26.04 232.66-27.76 234.19-29.03 235.73-30.3 237.6-31.02 239.47-31.74 241.62-31.74ZM259.02-0.1L259.02-0.1Q257.09-0.1 255.9-0.78 254.7-1.46 254.7-2.59L254.7-2.59Q254.7-3.76 255.86-4.41 257.02-5.05 258.9-5.05L258.9-5.05Q260.56-5.05 262.21-4.46 263.85-3.86 265.47-3.15L265.47-3.15Q267.54-4.52 269.3-6.59 271.06-8.67 272.34-11.1 273.62-13.53 274.34-16.15 275.06-18.77 275.06-21.24L275.06-21.24Q275.06-23.14 274.66-24.6 274.25-26.05 273.56-27.1 272.86-28.15 271.94-28.85 271.01-29.54 269.98-29.94 268.96-30.35 267.88-30.52 266.81-30.69 265.81-30.69L265.81-30.69Q263.83-30.69 262.1-30.02 260.36-29.35 259.09-28.17 257.82-27 257.09-25.43 256.36-23.85 256.36-22.05L256.36-22.05Q256.36-21 256.65-19.86 256.94-18.73 257.65-17.6L257.65-17.6Q257.46-17.48 257.16-17.29 256.87-17.09 256.6-16.92L256.6-16.92Q256.29-16.7 255.92-16.5L255.92-16.5Q255.36-17.53 255.05-18.69 254.75-19.85 254.75-21.04L254.75-21.04Q254.75-23.17 255.58-25.09 256.41-27 257.88-28.44 259.36-29.88 261.39-30.74 263.41-31.59 265.81-31.59L265.81-31.59Q267.13-31.59 268.52-31.37 269.91-31.15 271.23-30.64 272.55-30.13 273.73-29.31 274.91-28.49 275.8-27.29 276.7-26.1 277.21-24.5 277.72-22.9 277.72-20.85L277.72-20.85Q277.72-18.29 276.87-15.65 276.01-13.01 274.52-10.58 273.03-8.15 271.04-6.07 269.05-3.98 266.76-2.54L266.76-2.54Q268.35-1.83 269.95-1.29 271.54-0.76 273.2-0.76L273.2-0.76Q274.3-0.76 275.4-1.05L275.4-1.05 275.72-0.15Q275.08 0.05 274.45 0.12 273.82 0.2 273.2 0.2L273.2 0.2Q272.25 0.2 271.31 0.01 270.37-0.17 269.44-0.49 268.52-0.81 267.59-1.2 266.66-1.59 265.76-2L265.76-2Q264.15-1.1 262.43-0.6 260.7-0.1 259.02-0.1ZM259.07-1.05L259.07-1.05Q260.48-1.05 261.85-1.44 263.22-1.83 264.51-2.54L264.51-2.54Q263.07-3.17 261.67-3.64 260.27-4.1 258.9-4.1L258.9-4.1Q257.97-4.1 257.31-3.69 256.65-3.27 256.65-2.59L256.65-2.59Q256.65-2.03 257.25-1.54 257.85-1.05 259.07-1.05ZM279.45-7.64L279.45-7.64 280.4-7.69Q280.5-6.35 281.15-5.03 281.8-3.71 282.94-2.67 284.09-1.64 285.75-0.99 287.41-0.34 289.51-0.34L289.51-0.34Q290.46-0.34 291.56-0.49 292.66-0.63 293.76-1.01 294.86-1.39 295.87-2.03 296.88-2.66 297.68-3.64 298.47-4.61 298.93-5.94 299.4-7.28 299.4-9.06L299.4-9.06Q299.4-11.04 298.7-12.63 298.01-14.23 296.73-15.36 295.44-16.48 293.61-17.09 291.78-17.7 289.51-17.7L289.51-17.7Q287.95-17.7 286.31-17.41L286.31-17.41 285.95-18.19Q287.29-19.21 288.71-20.51 290.12-21.8 291.51-23.3 292.9-24.8 294.19-26.51 295.47-28.22 296.54-30.1L296.54-30.1Q295.54-29.83 294.15-29.58 292.76-29.32 291.07-29.11 289.39-28.91 287.51-28.78 285.63-28.66 283.65-28.66L283.65-28.66 283.26-31.15Q283.29-31.13 283.8-31.08 284.31-31.03 285.19-30.98 286.07-30.93 287.24-30.9 288.41-30.86 289.75-30.86L289.75-30.86Q290.85-30.86 292.03-30.9 293.2-30.93 294.34-31.04 295.49-31.15 296.58-31.31 297.67-31.47 298.59-31.74L298.59-31.74 299.15-31.1Q298.1-29.15 296.59-27.26 295.08-25.37 293.48-23.72 291.88-22.07 290.39-20.75 288.9-19.43 287.9-18.6L287.9-18.6Q288.53-18.82 289.38-18.93 290.22-19.04 291.2-19.04L291.2-19.04Q292.37-19.04 293.62-18.86 294.88-18.68 296.08-18.24 297.27-17.8 298.35-17.09 299.42-16.38 300.24-15.36 301.06-14.33 301.53-12.94 302.01-11.55 302.01-9.74L302.01-9.74Q302.01-7.3 301.12-5.35 300.23-3.39 298.65-2.01 297.08-0.63 294.92 0.11 292.76 0.85 290.24 0.85L290.24 0.85Q288.27 0.85 286.39 0.32 284.51-0.22 283.02-1.29 281.53-2.37 280.56-3.96 279.6-5.54 279.45-7.64Z" opacity="1" transform="matrix(1,0,0,1,0,0)" fill="#ffffff" class="wordmark-text-0" data-fill-palette-color="primary" id="text-0"></path></svg></g></svg></g></svg></g></svg></g><g></g></svg></g></svg></g></svg></g><g mask="url(#f081a329-e405-46a1-a6a2-7d2523916166)"><g transform="matrix(3.6445792086566184, 0, 0, 3.6445792086566184, 43.36286869407533, 1)"><svg xmlns="http://www.w3.org/2000/svg" xmlns:xlink="http://www.w3.org/1999/xlink" version="1.1" x="0" y="0" viewBox="2.636 11.36 84.727 67.278" enable-background="new 0 0 90 90" xml:space="preserve" height="67.278" width="84.727" class="icon-none" data-fill-palette-color="accent" id="none"><path d="M65.488 65.37A3.24 3.24 0 0 1 62.245 65.888 3.26 3.26 0 0 1 61.005 64.989 24.52 24.52 0 0 1 47.723 73.789C50.713 71.707 53.186 68.118 54.844 63.58H60.297C60.276 63.484 60.234 63.398 60.223 63.301L59.938 61.136H55.63C56.471 58.145 56.973 54.828 57.068 51.3H58.642L58.32 48.856H57.068A44 44 0 0 0 56.672 44.099C55.893 44.316 55.084 44.53 54.282 44.744 54.456 46.08 54.584 47.444 54.626 48.856H46.016L45.52 51.3H54.625C54.521 54.841 53.986 58.184 53.088 61.136H42.795V55.735L41.543 56.61C41.18 56.867 40.771 57.009 40.351 57.096V61.136H30.058A35 35 0 0 1 29.011 56.536C28.744 56.644 28.469 56.753 28.207 56.865 27.683 57.088 27.215 57.31 26.717 57.533 26.936 58.771 27.194 59.984 27.515 61.136H19.708V61.134A38 38 0 0 0 17.712 62.426 29 29 0 0 0 16.351 63.449C21.156 72.474 30.654 78.638 41.572 78.638 51.811 78.638 60.78 73.205 65.822 65.089zM21.114 63.58H28.302C29.963 68.118 32.432 71.707 35.423 73.789A24.54 24.54 0 0 1 21.114 63.58M40.351 73.266C36.468 72.621 33.081 68.944 30.93 63.58H40.351zM42.795 63.58H52.216C50.067 68.941 46.676 72.621 42.795 73.266z" fill="#e9de2c" data-fill-palette-color="accent"></path><path d="M87.363 24.459C83.368 21.832 75.015 23.686 65.748 27.262L49.466 11.36 43.981 11.548 57.07 30.955C51.685 33.431 46.351 36.187 41.674 38.734L34.918 33.632 32.112 33.959 39.089 42.748 39.69 53.956 42.007 52.339 43.684 44.042C48.874 42.854 54.699 41.382 60.371 39.67L63.424 62.876 67.656 59.381 69.31 36.686C78.628 33.219 86.111 29.072 87.363 24.459" fill="#e9de2c" data-fill-palette-color="accent"></path><path d="M48.527 24.071L47.179 22.072A28.7 28.7 0 0 0 41.569 21.512C27.307 21.512 15.487 32.031 13.377 45.711A87 87 0 0 1 18.398 42.21C18.768 41.113 19.187 40.037 19.706 39.016H23.639A140 140 0 0 1 28.045 36.572H21.112A24.54 24.54 0 0 1 35.422 26.363C33.83 27.473 32.39 29.02 31.135 30.901 31.332 30.838 31.528 30.771 31.739 30.748L34.545 30.421 34.597 30.42C36.294 28.503 38.244 27.236 40.349 26.888V33.682L41.964 34.903C42.246 34.752 42.513 34.619 42.793 34.468V26.888C45.166 27.281 47.353 28.821 49.189 31.173L52.355 29.668z" fill="#e9de2c" data-fill-palette-color="accent"></path><path d="M35.919 43.951L31.522 38.413C28.535 39.944 25.2 41.758 21.715 43.93 17.823 46.376 13.737 49.2 9.99 52.799 8.13 54.612 6.342 56.627 4.892 59.057 4.175 60.274 3.553 61.606 3.125 63.048 3.01 63.401 2.933 63.781 2.845 64.149 2.798 64.332 2.776 64.524 2.741 64.712L2.639 65.393 2.636 66.225 2.659 67.451C2.766 68.928 3.16 70.5 3.944 71.871 4.71 73.254 5.86 74.317 7.004 74.999 9.331 76.362 11.513 76.585 13.392 76.696 17.165 76.811 20.061 76.196 22.087 75.794A80 80 0 0 0 23.699 75.433C17.819 75.124 14.156 73.714 12.189 72.646A8 8 0 0 1 10.661 71.669 5 5 0 0 1 10.344 71.406L10.382 71.403C10.261 71.288 10.12 71.18 10.018 71.057 9.132 69.998 9.109 69.036 9.423 67.656 9.477 67.514 9.524 67.385 9.563 67.251L9.802 66.452 9.81 66.429C9.832 66.304 9.788 66.57 9.794 66.535L9.807 66.507 9.829 66.444 9.873 66.323C9.906 66.244 9.924 66.164 9.965 66.081 10.044 65.918 10.098 65.755 10.193 65.59A10.4 10.4 0 0 1 11.541 63.582C12.668 62.239 14.193 60.953 15.864 59.778 19.236 57.427 23.173 55.502 26.949 53.893 30.233 52.499 33.404 51.37 36.266 50.42z" fill="#e9de2c" data-fill-palette-color="accent"></path></svg></g></g></svg></g><defs></defs></svg><rect width="395.52" height="247.2" fill="none" stroke="none" visibility="hidden"></rect></g></svg></g></svg>